<?xml version="1.0" encoding="UTF-8" standalone="no"?>
<!-- Generator: Adobe Illustrator 21.1.0, SVG Export Plug-In . SVG Version: 6.00 Build 0)  -->

<svg
   xmlns:dc="http://purl.org/dc/elements/1.1/"
   xmlns:cc="http://creativecommons.org/ns#"
   xmlns:rdf="http://www.w3.org/1999/02/22-rdf-syntax-ns#"
   xmlns:svg="http://www.w3.org/2000/svg"
   xmlns="http://www.w3.org/2000/svg"
   xmlns:sodipodi="http://sodipodi.sourceforge.net/DTD/sodipodi-0.dtd"
   xmlns:inkscape="http://www.inkscape.org/namespaces/inkscape"
   version="1.0"
   id="Layer_1"
   x="0px"
   y="0px"
   viewBox="0 0 1080 720"
   xml:space="preserve"
   inkscape:version="0.91 r13725"
   sodipodi:docname="always2.svg"
   width="12in"
   height="8in"><metadata
     id="metadata139"><rdf:RDF><cc:Work
         rdf:about=""><dc:format>image/svg+xml</dc:format><dc:type
           rdf:resource="http://purl.org/dc/dcmitype/StillImage" /><dc:title></dc:title></cc:Work></rdf:RDF></metadata><defs
     id="defs137" /><sodipodi:namedview
     pagecolor="#ffffff"
     bordercolor="#666666"
     borderopacity="1"
     objecttolerance="10"
     gridtolerance="10"
     guidetolerance="10"
     inkscape:pageopacity="0"
     inkscape:pageshadow="2"
     inkscape:window-width="1920"
     inkscape:window-height="1005"
     id="namedview135"
     showgrid="false"
     units="in"
     inkscape:zoom="1.0252525"
     inkscape:cx="306.00001"
     inkscape:cy="474.02957"
     inkscape:window-x="-9"
     inkscape:window-y="-9"
     inkscape:window-maximized="1"
     inkscape:current-layer="Layer_1" /><style
     type="text/css"
     id="style3">
	.st0{fill:none;stroke:#FF0000;stroke-width:0.216;stroke-miterlimit:10;}
	.st1{fill:none;stroke:#00FF00;stroke-width:0.216;stroke-miterlimit:10;}
	.st2{font-family:'MyriadPro-BoldCond';}
	.st3{font-size:12px;}
</style><path
     style="fill:none;stroke:#ff0000;stroke-width:0.27;stroke-miterlimit:10;stroke-dasharray:none"
     inkscape:connector-curvature="0"
     id="path7"
     d="m 310.63417,479.27655 c 0.61055,1.22109 1.83163,1.83162 3.05271,1.83162 l 551.93179,0 c 1.22109,0 2.44218,-0.61053 3.25624,-1.83162 0.61054,-1.22109 0.61054,-2.44218 0,-3.66327 L 592.90901,11.192819 c -0.61054,-1.017583 -1.83163,-1.831639 -3.05272,-1.831639 -1.22108,0 -2.44217,0.61055 -3.05271,1.831639 L 310.63417,475.61328 c -0.61054,1.22109 -0.61054,2.64569 0,3.66327 z"
     class="st0" /><path
     style="fill:none;stroke:#ff0000;stroke-width:0.27;stroke-miterlimit:10;stroke-dasharray:none"
     inkscape:connector-curvature="0"
     id="path9"
     d="m 607.9691,230.58161 c 16.6882,3.45975 32.15531,11.80386 44.3662,24.01474 16.6882,16.6882 25.84636,38.8713 25.84636,62.479 0,23.6077 -9.15816,45.79081 -25.84636,62.479 -12.41439,12.4144 -27.678,20.55498 -44.3662,24.01473 l 0,-172.98747 z"
     class="st0" /><path
     style="fill:none;stroke:#ff0000;stroke-width:0.27;stroke-miterlimit:10;stroke-dasharray:none"
     inkscape:connector-curvature="0"
     id="path11"
     d="m 571.53997,403.97612 c -16.6882,-3.45975 -32.15531,-11.80386 -44.3662,-24.01473 -16.6882,-16.68821 -25.84635,-38.8713 -25.84635,-62.47901 0,-23.60769 9.15815,-45.7908 25.84635,-62.479 12.4144,-12.4144 27.678,-20.55498 44.3662,-24.01473 l 0,172.98747 z"
     class="st0" /><path
     style="fill:none;stroke:#ff0000;stroke-width:0.27;stroke-miterlimit:10;stroke-dasharray:none"
     inkscape:connector-curvature="0"
     id="path13"
     d="m 607.9691,444.88257 0,-5.4949 c 59.42629,-8.75113 105.21708,-60.24034 105.21708,-122.10881 0,-18.51983 -4.07029,-36.2256 -11.60033,-52.09975 l 106.64169,179.70346 -200.25844,0 z"
     class="st0" /><path
     style="fill:none;stroke:#ff0000;stroke-width:0.27;stroke-miterlimit:10;stroke-dasharray:none"
     inkscape:connector-curvature="0"
     id="path15"
     d="m 688.96794,244.21711 c -19.13038,-25.84637 -48.02946,-43.95917 -81.20235,-48.84353 l 0,-87.91833 81.20235,136.76186 z"
     class="st0" /><path
     style="fill:none;stroke:#ff0000;stroke-width:0.27;stroke-miterlimit:10;stroke-dasharray:none"
     inkscape:connector-curvature="0"
     id="path17"
     d="m 571.53997,195.17006 c -33.17288,4.88436 -62.07197,22.99716 -81.20235,48.84353 l 81.20235,-136.55834 0,87.71481 z"
     class="st0" /><path
     style="fill:none;stroke:#ff0000;stroke-width:0.27;stroke-miterlimit:10;stroke-dasharray:none"
     inkscape:connector-curvature="0"
     id="path19"
     d="m 477.92322,265.17911 c -7.32653,15.87415 -11.60033,33.3764 -11.60033,52.09975 0,61.86847 45.7908,113.15416 105.21708,122.10881 l 0,5.4949 -200.46194,0 106.84519,-179.70346 z"
     class="st0" /><path
     style="fill:none;stroke:#00ff00;stroke-width:0.27;stroke-miterlimit:10;stroke-dasharray:none"
     inkscape:connector-curvature="0"
     id="path21"
     d="m 701.58585,265.17911 c -3.45975,-7.53004 -7.73356,-14.65306 -12.61791,-21.16552"
     class="st1" /><path
     style="fill:none;stroke:#00ff00;stroke-width:0.27;stroke-miterlimit:10;stroke-dasharray:none"
     inkscape:connector-curvature="0"
     id="path23"
     d="m 571.53997,230.58161 c 5.90193,-1.22109 12.00737,-1.83162 18.11281,-1.83162 6.10544,0 12.21088,0.61053 18.11281,1.83162"
     class="st1" /><path
     style="fill:none;stroke:#00ff00;stroke-width:0.27;stroke-miterlimit:10;stroke-dasharray:none"
     inkscape:connector-curvature="0"
     id="path25"
     d="m 607.9691,195.17006 c -5.90193,-0.81405 -12.00736,-1.4246 -18.11281,-1.4246 -6.10544,0 -12.21087,0.40703 -18.1128,1.4246"
     class="st1" /><path
     style="fill:none;stroke:#00ff00;stroke-width:0.27;stroke-miterlimit:10;stroke-dasharray:none"
     inkscape:connector-curvature="0"
     id="path27"
     d="m 490.33762,244.21711 c -4.88435,6.51246 -9.15816,13.63548 -12.61791,21.16551"
     class="st1" /><path
     style="fill:none;stroke:#00ff00;stroke-width:0.27;stroke-miterlimit:10;stroke-dasharray:none"
     inkscape:connector-curvature="0"
     id="path29"
     d="m 607.9691,403.97612 c -5.90193,1.22108 -12.00736,1.83162 -18.11281,1.83162 -6.10544,0 -12.21087,-0.61054 -18.1128,-1.83162"
     class="st1" /><path
     style="fill:none;stroke:#00ff00;stroke-width:0.27;stroke-miterlimit:10;stroke-dasharray:none"
     inkscape:connector-curvature="0"
     id="path31"
     d="m 571.53997,439.38767 c 5.90193,0.81406 12.00737,1.4246 18.11281,1.4246 6.10544,0 12.21088,-0.40703 18.11281,-1.4246"
     class="st1" /><circle
     style="fill:none;stroke:#ff0000;stroke-width:0.27;stroke-miterlimit:10;stroke-dasharray:none"
     id="circle33"
     r="8.1405869"
     cy="37.853241"
     cx="589.65283"
     class="st0" /><path
     style="fill:none;stroke:#ff0000;stroke-width:0.27;stroke-miterlimit:10;stroke-dasharray:none"
     inkscape:connector-curvature="0"
     id="path37"
     d="M 602.06717,12.210391 740.45714,245.23468 c 0.40704,0.61054 1.01759,0.81405 1.62813,0.81405 0.61055,0 1.22109,-0.40703 1.62812,-0.81405 L 882.10336,12.210391 c 0.40703,-0.61055 0.40703,-1.221089 0,-1.831638 -0.40703,-0.610539 -1.01757,-1.017573 -1.62812,-1.017573 l -276.98347,0 c -0.61053,0 -1.22108,0.407034 -1.62811,1.017573 -0.20351,0.407033 -0.20351,1.221088 0.20351,1.831638 z"
     class="st0" /><path
     style="fill:none;stroke:#ff0000;stroke-width:0.27;stroke-miterlimit:10;stroke-dasharray:none"
     inkscape:connector-curvature="0"
     id="path39"
     d="m 751.24343,48.232479 c 8.3441,1.831639 16.07765,5.901927 22.38661,12.00737 8.3441,8.344104 13.02494,19.537408 13.02494,31.341261 0,11.80385 -4.68084,22.99715 -13.02494,31.34125 -6.10544,6.10543 -13.83899,10.37925 -22.38661,12.00736 l 0,-86.697241 z"
     class="st0" /><path
     style="fill:none;stroke:#ff0000;stroke-width:0.27;stroke-miterlimit:10;stroke-dasharray:none"
     inkscape:connector-curvature="0"
     id="path41"
     d="m 732.92711,135.13324 c -8.34411,-1.83163 -16.07766,-5.90193 -22.38662,-12.00736 -8.34409,-8.34411 -13.02493,-19.53741 -13.02493,-31.341253 0,-11.803854 4.68084,-22.997157 13.02493,-31.341261 6.10544,-6.105444 13.839,-10.379248 22.38662,-12.00737 l 0,86.697244 z"
     class="st0" /><path
     style="fill:none;stroke:#ff0000;stroke-width:0.27;stroke-miterlimit:10;stroke-dasharray:none"
     inkscape:connector-curvature="0"
     id="path43"
     d="m 732.92711,152.83902 0,43.95917 -40.70294,-68.58445 c 9.56519,13.02494 24.01473,22.1831 40.70294,24.62528 z"
     class="st0" /><path
     style="fill:none;stroke:#ff0000;stroke-width:0.27;stroke-miterlimit:10;stroke-dasharray:none"
     inkscape:connector-curvature="0"
     id="path45"
     d="m 751.24343,152.83902 c 16.6882,-2.44218 31.13774,-11.60034 40.70293,-24.62528 l -40.70293,68.58445 0,-43.95917 z"
     class="st0" /><path
     style="fill:none;stroke:#ff0000;stroke-width:0.27;stroke-miterlimit:10;stroke-dasharray:none"
     inkscape:connector-curvature="0"
     id="path47"
     d="m 851.77967,27.473983 -53.52436,90.156987 c 3.66327,-7.93706 5.69841,-16.68818 5.69841,-26.04986 0,-31.137744 -22.99715,-56.780595 -52.71029,-61.257917 l 0,-2.84921 c 0,0 100.53624,0 100.53624,0 z"
     class="st0" /><path
     style="fill:none;stroke:#ff0000;stroke-width:0.27;stroke-miterlimit:10;stroke-dasharray:none"
     inkscape:connector-curvature="0"
     id="path49"
     d="m 732.92711,27.473983 0,2.84921 c -29.91666,4.477322 -52.7103,30.323689 -52.7103,61.257917 0,9.36168 2.03515,18.1128 5.69841,26.04986 L 632.39086,27.473983 c 0,0 100.53625,0 100.53625,0 z"
     class="st0" /><path
     style="fill:none;stroke:#00ff00;stroke-width:0.27;stroke-miterlimit:10;stroke-dasharray:none"
     inkscape:connector-curvature="0"
     id="path51"
     d="m 685.91522,117.63097 c 1.83163,3.66327 3.86677,7.32653 6.30895,10.58277"
     class="st1" /><path
     style="fill:none;stroke:#00ff00;stroke-width:0.27;stroke-miterlimit:10;stroke-dasharray:none"
     inkscape:connector-curvature="0"
     id="path53"
     d="m 751.24343,135.13324 c -3.05272,0.61055 -6.10545,1.01757 -9.15816,1.01757 -3.05272,0 -6.10545,-0.40702 -9.15816,-1.01757"
     class="st1" /><path
     style="fill:none;stroke:#00ff00;stroke-width:0.27;stroke-miterlimit:10;stroke-dasharray:none"
     inkscape:connector-curvature="0"
     id="path55"
     d="m 732.92711,152.83902 c 3.05271,0.40702 6.10544,0.61054 9.15816,0.61054 3.05271,0 6.10544,-0.20352 9.15816,-0.61054"
     class="st1" /><path
     style="fill:none;stroke:#00ff00;stroke-width:0.27;stroke-miterlimit:10;stroke-dasharray:none"
     inkscape:connector-curvature="0"
     id="path57"
     d="m 732.92711,48.232479 c 3.05271,-0.610539 6.10544,-1.017572 9.15816,-1.017572 3.05271,0 6.10544,0.407033 9.15816,1.017572"
     class="st1" /><path
     style="fill:none;stroke:#00ff00;stroke-width:0.27;stroke-miterlimit:10;stroke-dasharray:none"
     inkscape:connector-curvature="0"
     id="path59"
     d="m 751.24343,30.323193 c -3.05272,-0.407033 -6.10545,-0.610549 -9.15816,-0.610549 -3.05272,0 -6.10545,0.203516 -9.15816,0.610549"
     class="st1" /><path
     style="fill:none;stroke:#00ff00;stroke-width:0.27;stroke-miterlimit:10;stroke-dasharray:none"
     inkscape:connector-curvature="0"
     id="path61"
     d="m 791.94636,128.21374 c 2.44218,-3.25624 4.47732,-6.9195 6.30895,-10.58277"
     class="st1" /><circle
     style="fill:none;stroke:#ff0000;stroke-width:0.27;stroke-miterlimit:10;stroke-dasharray:none"
     id="circle63"
     r="7.1230135"
     cy="222.64455"
     cx="742.08533"
     class="st0" /><path
     style="fill:none;stroke:#ff0000;stroke-width:0.27;stroke-miterlimit:10;stroke-dasharray:none"
     inkscape:connector-curvature="0"
     id="path67"
     d="M 577.84892,11.192819 C 577.23838,9.97173 576.0173,9.36118 574.79621,9.36118 l -552.135299,0 c -1.221089,0 -2.442177,0.61055 -3.256235,1.831639 -0.610545,1.221078 -0.610545,2.442166 0.203514,3.663255 L 295.57408,479.48006 c 0.61055,1.01758 1.83164,1.83163 3.05273,1.83163 1.22107,0 2.44216,-0.61054 3.05271,-1.83163 L 577.64542,14.856074 c 0.81405,-1.221089 0.81405,-2.442177 0.2035,-3.663255 z"
     class="st0" /><path
     style="fill:none;stroke:#ff0000;stroke-width:0.27;stroke-miterlimit:10;stroke-dasharray:none"
     inkscape:connector-curvature="0"
     id="path69"
     d="M 280.51399,259.88773 C 263.8258,256.42798 248.35868,248.08388 236.1478,235.873 c -16.68821,-16.68821 -25.84637,-38.8713 -25.84637,-62.479 0,-23.60771 9.15816,-45.7908 25.84637,-62.479 12.41439,-12.414391 27.678,-20.554979 44.36619,-24.014728 l 0,172.987458 z"
     class="st0" /><path
     style="fill:none;stroke:#ff0000;stroke-width:0.27;stroke-miterlimit:10;stroke-dasharray:none"
     inkscape:connector-curvature="0"
     id="path71"
     d="m 316.73961,86.696755 c 16.6882,3.45975 32.15532,11.803854 44.36619,24.014725 16.89173,16.6882 26.04989,38.8713 26.04989,62.479 0,23.60771 -9.15816,45.7908 -25.84637,62.479 -12.41439,12.4144 -27.678,20.55498 -44.36619,24.01473 l 0,-172.987455 -0.20352,0 z"
     class="st0" /><path
     style="fill:none;stroke:#ff0000;stroke-width:0.27;stroke-miterlimit:10;stroke-dasharray:none"
     inkscape:connector-curvature="0"
     id="path73"
     d="m 280.51399,45.586796 0,5.494894 c -59.42627,8.751126 -105.21708,60.24034 -105.21708,122.10879 0,18.51983 4.0703,36.22561 11.60033,52.09976 L 80.052047,45.586796 l 200.461943,0 z"
     class="st0" /><path
     style="fill:none;stroke:#ff0000;stroke-width:0.27;stroke-miterlimit:10;stroke-dasharray:none"
     inkscape:connector-curvature="0"
     id="path75"
     d="m 199.31165,246.45577 c 19.13037,25.84635 48.02945,43.95917 81.20234,48.84351 l 0,87.71482 -81.20234,-136.55833 z"
     class="st0" /><path
     style="fill:none;stroke:#ff0000;stroke-width:0.27;stroke-miterlimit:10;stroke-dasharray:none"
     inkscape:connector-curvature="0"
     id="path77"
     d="m 316.73961,295.29928 c 33.17289,-4.88434 62.07197,-22.99716 81.20235,-48.84351 l -81.20235,136.55833 0,-87.71482 z"
     class="st0" /><path
     style="fill:none;stroke:#ff0000;stroke-width:0.27;stroke-miterlimit:10;stroke-dasharray:none"
     inkscape:connector-curvature="0"
     id="path79"
     d="m 410.55986,225.29024 c 7.32654,-15.87415 11.60034,-33.37641 11.60034,-52.09976 0,-61.86845 -45.7908,-113.154147 -105.21707,-122.10879 l 0,-5.494894 200.46194,0 -106.84521,179.703444 z"
     class="st0" /><path
     style="fill:none;stroke:#00ff00;stroke-width:0.27;stroke-miterlimit:10;stroke-dasharray:none"
     inkscape:connector-curvature="0"
     id="path81"
     d="m 186.69374,225.29024 c 3.45975,7.53003 7.73355,14.65305 12.61791,21.16553"
     class="st1" /><path
     style="fill:none;stroke:#00ff00;stroke-width:0.27;stroke-miterlimit:10;stroke-dasharray:none"
     inkscape:connector-curvature="0"
     id="path83"
     d="m 316.73961,259.88773 c -5.90193,1.22109 -12.00737,1.83163 -18.1128,1.83163 -6.10545,0 -12.21089,-0.61054 -18.11282,-1.83163"
     class="st1" /><path
     style="fill:none;stroke:#00ff00;stroke-width:0.27;stroke-miterlimit:10;stroke-dasharray:none"
     inkscape:connector-curvature="0"
     id="path85"
     d="m 280.51399,295.29928 c 5.90193,0.81407 12.00737,1.4246 18.11282,1.4246 6.10543,0 12.21087,-0.40703 18.1128,-1.4246"
     class="st1" /><path
     style="fill:none;stroke:#00ff00;stroke-width:0.27;stroke-miterlimit:10;stroke-dasharray:none"
     inkscape:connector-curvature="0"
     id="path87"
     d="m 397.94196,246.45577 c 4.88435,-6.51248 9.15816,-13.6355 12.6179,-21.16553"
     class="st1" /><path
     style="fill:none;stroke:#00ff00;stroke-width:0.27;stroke-miterlimit:10;stroke-dasharray:none"
     inkscape:connector-curvature="0"
     id="path89"
     d="m 280.51399,86.696755 c 5.90193,-1.221088 12.00737,-1.831627 18.11282,-1.831627 6.10543,0 12.21087,0.610539 18.1128,1.831627"
     class="st1" /><path
     style="fill:none;stroke:#00ff00;stroke-width:0.27;stroke-miterlimit:10;stroke-dasharray:none"
     inkscape:connector-curvature="0"
     id="path91"
     d="m 316.73961,51.285206 c -5.90193,-0.814066 -12.00737,-1.424605 -18.1128,-1.424605 -6.10545,0 -12.21089,0.407033 -18.11282,1.424605"
     class="st1" /><circle
     style="fill:none;stroke:#ff0000;stroke-width:0.27;stroke-miterlimit:10;stroke-dasharray:none"
     id="circle93"
     r="8.1405869"
     cy="452.61609"
     cx="298.6268"
     class="st0" /><path
     style="fill:none;stroke:#ff0000;stroke-width:0.27;stroke-miterlimit:10;stroke-dasharray:none"
     inkscape:connector-curvature="0"
     id="path97"
     d="M 286.41592,478.46248 147.82243,245.43818 c -0.40702,-0.61054 -1.01757,-0.81405 -1.62811,-0.81405 -0.61055,0 -1.22109,0.40703 -1.62812,0.81405 L 6.1762215,478.46248 c -0.4070293,0.61055 -0.4070293,1.22109 0,1.83164 0.4070293,0.61054 1.0175733,1.01757 1.6281173,1.01757 l 276.9834712,0 c 0.61054,0 1.22108,-0.40703 1.62811,-1.01757 0.20352,-0.61055 0.20352,-1.22109 0,-1.83164 z"
     class="st0" /><path
     style="fill:none;stroke:#ff0000;stroke-width:0.27;stroke-miterlimit:10;stroke-dasharray:none"
     inkscape:connector-curvature="0"
     id="path99"
     d="m 137.23966,442.44039 c -8.34409,-1.83164 -16.07765,-5.90192 -22.3866,-12.00737 -8.34411,-8.3441 -13.02494,-19.53741 -13.02494,-31.34126 0,-11.80385 4.68083,-22.99716 13.02494,-31.34126 6.10544,-6.10543 13.83899,-10.37925 22.3866,-12.00736 l 0,86.69725 z"
     class="st0" /><path
     style="fill:none;stroke:#ff0000;stroke-width:0.27;stroke-miterlimit:10;stroke-dasharray:none"
     inkscape:connector-curvature="0"
     id="path101"
     d="m 155.35248,355.53962 c 8.3441,1.83163 16.07766,5.90193 22.3866,12.00737 8.34411,8.3441 13.02495,19.53741 13.02495,31.34125 0,11.80386 -4.68084,22.99716 -13.02495,31.34127 -6.10543,6.10544 -13.83899,10.37924 -22.3866,12.00737 l 0,-86.69726 z"
     class="st0" /><path
     style="fill:none;stroke:#ff0000;stroke-width:0.27;stroke-miterlimit:10;stroke-dasharray:none"
     inkscape:connector-curvature="0"
     id="path103"
     d="m 155.35248,337.63034 0,-43.95917 40.70292,68.58444 c -9.56518,-13.02493 -24.01473,-21.97959 -40.70292,-24.62527 z"
     class="st0" /><path
     style="fill:none;stroke:#ff0000;stroke-width:0.27;stroke-miterlimit:10;stroke-dasharray:none"
     inkscape:connector-curvature="0"
     id="path105"
     d="m 137.23966,337.63034 c -16.68819,2.44217 -31.13774,11.60034 -40.702925,24.62527 l 40.702925,-68.58444 0,43.95917 z"
     class="st0" /><path
     style="fill:none;stroke:#ff0000;stroke-width:0.27;stroke-miterlimit:10;stroke-dasharray:none"
     inkscape:connector-curvature="0"
     id="path107"
     d="m 36.703423,462.99537 53.524358,-90.157 c -3.663264,7.93707 -5.698411,16.68821 -5.698411,26.04987 0,31.13775 22.99716,56.7806 52.71029,61.25792 l 0,2.84921 -100.536237,0 z"
     class="st0" /><path
     style="fill:none;stroke:#ff0000;stroke-width:0.27;stroke-miterlimit:10;stroke-dasharray:none"
     inkscape:connector-curvature="0"
     id="path109"
     d="m 155.35248,462.99537 0,-2.84921 c 29.91665,-4.47732 52.71029,-30.12017 52.71029,-61.25792 0,-9.36166 -2.03514,-18.1128 -5.69841,-26.04987 l 53.52437,90.157 -100.53625,0 z"
     class="st0" /><path
     style="fill:none;stroke:#00ff00;stroke-width:0.27;stroke-miterlimit:10;stroke-dasharray:none"
     inkscape:connector-curvature="0"
     id="path111"
     d="m 202.36436,372.83837 c -1.83162,-3.66326 -3.86678,-7.32653 -6.30896,-10.58276"
     class="st1" /><path
     style="fill:none;stroke:#00ff00;stroke-width:0.27;stroke-miterlimit:10;stroke-dasharray:none"
     inkscape:connector-curvature="0"
     id="path113"
     d="m 137.23966,355.53962 c 3.05273,-0.61053 6.10545,-1.01757 9.15816,-1.01757 3.05273,0 6.10545,0.40704 9.15817,1.01757"
     class="st1" /><path
     style="fill:none;stroke:#00ff00;stroke-width:0.27;stroke-miterlimit:10;stroke-dasharray:none"
     inkscape:connector-curvature="0"
     id="path115"
     d="m 155.35248,337.63034 c -3.05273,-0.40703 -6.10545,-0.61055 -9.15816,-0.61055 -3.05273,0 -6.10545,0.20352 -9.15816,0.61055"
     class="st1" /><path
     style="fill:none;stroke:#00ff00;stroke-width:0.27;stroke-miterlimit:10;stroke-dasharray:none"
     inkscape:connector-curvature="0"
     id="path117"
     d="m 155.35248,442.44039 c -3.05273,0.61054 -6.10545,1.01757 -9.15816,1.01757 -3.05273,0 -6.10545,-0.40703 -9.15816,-1.01757"
     class="st1" /><path
     style="fill:none;stroke:#00ff00;stroke-width:0.27;stroke-miterlimit:10;stroke-dasharray:none"
     inkscape:connector-curvature="0"
     id="path119"
     d="m 137.23966,460.14616 c 3.05273,0.40703 6.10545,0.61055 9.15816,0.61055 3.05273,0 6.10545,-0.20352 9.15817,-0.61055"
     class="st1" /><path
     style="fill:none;stroke:#00ff00;stroke-width:0.27;stroke-miterlimit:10;stroke-dasharray:none"
     inkscape:connector-curvature="0"
     id="path121"
     d="m 96.536735,362.25561 c -2.442176,3.25623 -4.477322,6.9195 -6.308954,10.58276"
     class="st1" /><circle
     style="fill:none;stroke:#ff0000;stroke-width:0.27;stroke-miterlimit:10;stroke-dasharray:none"
     id="circle123"
     r="7.1230135"
     cy="267.8248"
     cx="146.39781"
     class="st0" /><circle
     class="st0"
     cx="72.114975"
     cy="183.77324"
     r="6.1054397"
     id="circle129"
     style="fill:none;stroke:#ff0000;stroke-width:0.27;stroke-miterlimit:10;stroke-dasharray:none" /><path
     class="st0"
     d="m 110.37573,270.87752 -47.418915,0 29.102598,-108.26981 -9.972219,16.28118 c -1.831633,-3.66327 -5.698411,-6.30895 -10.175733,-6.30895 -6.10544,0 -11.193307,5.08786 -11.193307,11.1933 0,6.10545 5.087867,11.19331 11.193307,11.19331 0.203514,0 0.203514,0 0.407029,0 l -66.3457832,109.49089 47.4189182,0 -29.102597,108.47332 86.086702,-142.05324 z"
     id="path131"
     style="fill:none;stroke:#ff0000;stroke-width:0.27;stroke-miterlimit:10;stroke-dasharray:none"
     inkscape:connector-curvature="0" /><line
     class="st1"
     x1="82.290703"
     y1="178.88889"
     x2="72.318497"
     y2="194.96655"
     id="line133"
     style="fill:none;stroke:#00ff00;stroke-width:0.27;stroke-miterlimit:10;stroke-dasharray:none" /></svg>