<svg id="Layer_1" data-name="Layer 1" xmlns="http://www.w3.org/2000/svg" viewBox="0 0 270 594.13"><defs><style>.cls-1{fill:#ed0973;}.cls-2{fill:#231f20;}.cls-3{fill:#8dc63f;}.cls-4{fill:#0072bc;}.cls-5{fill:#000013;}.cls-6{fill:#92278f;}.cls-7{fill:none;stroke:#000;stroke-width:0.25px;}</style></defs><title>Artboard 1</title><path class="cls-1" d="M75.74,247.26l-.24,18.28H25.41V261h.81q4.13,0,5.37-1.52t1.24-5.21V221.8q0-3.77-1.3-5.25t-5.31-1.48h-.81v-4.5H54.87v4.5H53.78q-4.13,0-5.37,1.52t-1.24,5.21v31.37a16.86,16.86,0,0,0,.41,4.66,3.83,3.83,0,0,0,2.13,2q1.72.83,6,.83,7.21,0,10.78-3.63a19.2,19.2,0,0,0,4.86-9.75Z"/><path class="cls-1" d="M77.34,237.89a28.27,28.27,0,0,1,4.13-14.47A25.6,25.6,0,0,1,92.68,213a34.64,34.64,0,0,1,15.14-3.38q14.51,0,22.76,8.37a28.13,28.13,0,0,1,8.25,20.53,27.23,27.23,0,0,1-8.23,19.86q-8.23,8.31-22.37,8.31a34.92,34.92,0,0,1-17.12-4.09,23.78,23.78,0,0,1-10.6-11A32.68,32.68,0,0,1,77.34,237.89Zm16.94-.45q0,12.69,3.4,18.3a11.1,11.1,0,0,0,10.13,5.61q7,0,10.58-5.13t3.57-18q0-11.75-3.34-17.55T108,214.91q-6.89,0-10.29,5.39T94.28,237.45Z"/><path class="cls-1" d="M161.85,266.67l-18.76-42.15q-2.27-5.11-3.12-6.54a5.56,5.56,0,0,0-2.27-2.17,10.49,10.49,0,0,0-4.54-.73v-4.5h29.22v4.5q-6.12,0-6.12,3a15.66,15.66,0,0,0,1.74,5.47l11.27,24.92,10.58-25a12.36,12.36,0,0,0,1.18-4.66q0-3.77-6.12-3.77v-4.5h19.33v4.5a6.9,6.9,0,0,0-5.13,1.78q-1.76,1.78-5.57,10.78l-16.7,39Z"/><path class="cls-1" d="M215,239.27v13.58a18,18,0,0,0,.45,5.09,3.89,3.89,0,0,0,2.39,2,16.63,16.63,0,0,0,5.92.79q5.39,0,7.92-1.34a12.09,12.09,0,0,0,4.54-4.7,25,25,0,0,0,2.9-7.17h4.54l-.36,18H193V261h1q4.09,0,5.33-1.52t1.24-5.21V221.72q0-3.77-1.28-5.25T194.06,215h-1v-4.42h46.81l.81,14.22h-4.54a23.86,23.86,0,0,0-2.72-5.94,7.39,7.39,0,0,0-3-2.84,14.74,14.74,0,0,0-5.13-.63H215v19h5.11q3.65,0,4.84-1.38t1.36-5.43h4.58V246.2h-4.58q0-.53,0-.77a9.07,9.07,0,0,0-1-4.26q-1-1.9-5.09-1.9Z"/><path class="cls-2" d="M64,277.12H61.35l-.85,1.3q-.42.64-.51.82a.82.82,0,0,0-.09.37q0,.67,1,.7h.23l-.1.31H57.77l.1-.31a1.88,1.88,0,0,0,1.11-.44,9,9,0,0,0,1.27-1.63l4.72-7h.48l-.32,7.51,0,.83a.63.63,0,0,0,.26.6,2,2,0,0,0,.86.17l-.1.31H62.47l.1-.31a1.78,1.78,0,0,0,1-.21.74.74,0,0,0,.3-.46,9.6,9.6,0,0,0,.08-1Zm0-.31.18-4-2.64,4Z"/><path class="cls-2" d="M69.76,279h.3q-.7,1.83-1.79,1.83a.77.77,0,0,1-.6-.25.9.9,0,0,1-.23-.62,9.19,9.19,0,0,1,.44-1.83l1.6-5.28a5,5,0,0,0,.21-.78.27.27,0,0,0-.09-.23.93.93,0,0,0-.46-.07h-.27l.09-.29a4.77,4.77,0,0,0,1.66-.25h.17l-2.2,7.25c0,.11-.1.32-.2.62a3.16,3.16,0,0,0-.2.9.51.51,0,0,0,.08.31.28.28,0,0,0,.24.1,1,1,0,0,0,.58-.32A3.13,3.13,0,0,0,69.76,279Z"/><path class="cls-2" d="M71.2,275.89h-.29q.27-1,.72-1a.8.8,0,0,1,.57.34q.29.33.49.33c.13,0,.22-.1.27-.31s.18-.4.32-.4.21.06.21.19a3.54,3.54,0,0,1-.38.74A10.59,10.59,0,0,0,72,278.21a6.22,6.22,0,0,0-.26,1.33,1,1,0,0,0,.17.59.54.54,0,0,0,.47.24,1.87,1.87,0,0,0,1-.43,5.12,5.12,0,0,0,1-.86,3,3,0,0,1,0-.36,6.29,6.29,0,0,1,.57-2.65q.57-1.24,1.2-1.24a.44.44,0,0,1,.39.18,1,1,0,0,1,.13.55,3.29,3.29,0,0,1-.35,1.38,8.13,8.13,0,0,1-1.06,1.63,3.11,3.11,0,0,0,.34,1.35.82.82,0,0,0,.71.48,1.52,1.52,0,0,0,.94-.47,4.1,4.1,0,0,0,1-1.44,4.2,4.2,0,0,0,.42-1.62,2.09,2.09,0,0,0-.22-.87,1.76,1.76,0,0,1-.2-.71.47.47,0,0,1,.11-.33.33.33,0,0,1,.24-.12q.19,0,.36.27A1.78,1.78,0,0,1,79,276a7.14,7.14,0,0,1-.43,2.2,4.34,4.34,0,0,1-1.21,2,2.34,2.34,0,0,1-1.49.67,1.21,1.21,0,0,1-1-.44,2,2,0,0,1-.47-.91,5.7,5.7,0,0,1-1.26,1,2.39,2.39,0,0,1-1.17.34,1.06,1.06,0,0,1-.86-.35,1.31,1.31,0,0,1-.29-.87,6.49,6.49,0,0,1,1.47-3.23q.36-.5.42-.62a1.15,1.15,0,0,1-.55.16.76.76,0,0,1-.51-.25.32.32,0,0,0-.21-.12q-.16,0-.27.27Zm3.94,2.28a7.72,7.72,0,0,0,.87-1.43,2.94,2.94,0,0,0,.29-1.17.69.69,0,0,0-.06-.32.19.19,0,0,0-.18-.11q-.27,0-.61.68a4.71,4.71,0,0,0-.33,2C75.13,277.91,75.13,278,75.14,278.16Z"/><path class="cls-2" d="M83.93,274.94h.82l-1.22,4a5.8,5.8,0,0,0-.27,1.05.32.32,0,0,0,.06.21.23.23,0,0,0,.18.07q.47,0,1.09-1.08h.29a3.66,3.66,0,0,1-.76,1.12,1.37,1.37,0,0,1-.91.5.57.57,0,0,1-.49-.24,1,1,0,0,1-.17-.59,2.67,2.67,0,0,1,.14-.73,4.39,4.39,0,0,1-.89,1,1.72,1.72,0,0,1-1.1.52,1.05,1.05,0,0,1-.82-.41,1.65,1.65,0,0,1-.34-1.1,4.46,4.46,0,0,1,.53-2,5.42,5.42,0,0,1,1.39-1.77,2.5,2.5,0,0,1,1.47-.71.77.77,0,0,1,.84.68Zm-3.58,4.58a1.35,1.35,0,0,0,.14.68.45.45,0,0,0,.41.23,1.71,1.71,0,0,0,1.08-.66,5.52,5.52,0,0,0,1.1-2,7.25,7.25,0,0,0,.46-1.86.81.81,0,0,0-.15-.49.49.49,0,0,0-.42-.2q-.83,0-1.73,1.65A6.05,6.05,0,0,0,80.36,279.52Z"/><path class="cls-2" d="M85.71,276.69h-.29a2.68,2.68,0,0,1,.43-1.41,1,1,0,0,1,.74-.44.91.91,0,0,1,.81.62,4.46,4.46,0,0,1,.3,1.88,11.33,11.33,0,0,1-.38,3,10.23,10.23,0,0,0,1.31-1.86,4.09,4.09,0,0,0,.64-1.92,1.45,1.45,0,0,0-.22-.75,1.23,1.23,0,0,1-.22-.55.48.48,0,0,1,.11-.31.32.32,0,0,1,.26-.13.46.46,0,0,1,.4.28,1.73,1.73,0,0,1,.16.83,5.27,5.27,0,0,1-.5,2,9.34,9.34,0,0,1-1.47,2.34,27.47,27.47,0,0,1-1.93,2.09,7.81,7.81,0,0,1-1.65,1.3,2.89,2.89,0,0,1-1.36.37q-.87,0-.87-.5a.37.37,0,0,1,.18-.32.7.7,0,0,1,.39-.12,2.15,2.15,0,0,1,.49.09,2.78,2.78,0,0,0,.72.12,1.58,1.58,0,0,0,.8-.23,5.52,5.52,0,0,0,1-.79,4.44,4.44,0,0,0,.81-1,5.43,5.43,0,0,0,.41-1.53,14.37,14.37,0,0,0,.18-2.35,4.78,4.78,0,0,0-.18-1.48c-.12-.35-.26-.52-.44-.52Q85.83,275.41,85.71,276.69Z"/><path class="cls-2" d="M93.52,279.12a1.69,1.69,0,0,1-.49,1.17,1.87,1.87,0,0,1-1.44.53,1.56,1.56,0,0,1-1.06-.31.89.89,0,0,1-.35-.67.52.52,0,0,1,.11-.33.33.33,0,0,1,.27-.14q.37,0,.37.39a1.13,1.13,0,0,1,0,.25.36.36,0,0,0,0,.12.34.34,0,0,0,.21.28,1,1,0,0,0,.51.12,1.33,1.33,0,0,0,.83-.29,1,1,0,0,0,.38-.8,3.46,3.46,0,0,0-.53-1.4,4,4,0,0,1-.62-1.62,1.41,1.41,0,0,1,.52-1.11,1.75,1.75,0,0,1,1.18-.45,1.4,1.4,0,0,1,.83.25.67.67,0,0,1,.34.53q0,.36-.3.36t-.33-.4a.55.55,0,0,0-.59-.44,1.11,1.11,0,0,0-.68.21.66.66,0,0,0-.29.55,2.88,2.88,0,0,0,.46,1.28,8.43,8.43,0,0,1,.58,1.13A2.26,2.26,0,0,1,93.52,279.12Z"/><path class="cls-2" d="M98.6,276.68h-.3a4.69,4.69,0,0,1,.72-1.31,1.17,1.17,0,0,1,.86-.54.48.48,0,0,1,.44.24,1.41,1.41,0,0,1,.14.71,6.84,6.84,0,0,1-.31,1.7s.1-.21.23-.49a8.83,8.83,0,0,1,.89-1.65,1,1,0,0,1,.77-.51.5.5,0,0,1,.53.51.48.48,0,0,1-.12.33.37.37,0,0,1-.28.13.52.52,0,0,1-.38-.23.2.2,0,0,0-.15-.09q-.34,0-1.05,1.64a29,29,0,0,0-1.15,3.09l-.15.49h-.82l1.09-3.62a6.2,6.2,0,0,0,.31-1.41.66.66,0,0,0-.05-.29.17.17,0,0,0-.15-.1c-.15,0-.34.16-.56.49A3.89,3.89,0,0,0,98.6,276.68Z"/><path class="cls-2" d="M105.38,278.88h.33q-.87,1.94-2.23,1.93a1.17,1.17,0,0,1-.91-.39,1.53,1.53,0,0,1-.35-1.06,5,5,0,0,1,.45-1.91,5.3,5.3,0,0,1,1.29-1.84,2.35,2.35,0,0,1,1.46-.77.71.71,0,0,1,.58.24.92.92,0,0,1,.2.6,2,2,0,0,1-.74,1.42,7.83,7.83,0,0,1-2.21,1.31,3.67,3.67,0,0,0-.19,1.13,1.05,1.05,0,0,0,.17.66.6.6,0,0,0,.51.22Q104.67,280.41,105.38,278.88Zm-2-.82a5.38,5.38,0,0,0,1.59-1.09,1.92,1.92,0,0,0,.7-1.26.6.6,0,0,0-.11-.39.39.39,0,0,0-.32-.13q-.41,0-1,.8A6.56,6.56,0,0,0,103.35,278.06Z"/><path class="cls-2" d="M114.55,279.33h.29a3.24,3.24,0,0,1-.76,1.06,1.39,1.39,0,0,1-.91.42.75.75,0,0,1-.52-.21.78.78,0,0,1-.23-.6,5.14,5.14,0,0,1,.33-1.33l.64-1.86a4.74,4.74,0,0,0,.29-1,.52.52,0,0,0-.09-.34.33.33,0,0,0-.28-.11q-.59,0-1.38,1a12.23,12.23,0,0,0-1.66,3.83l-.18.59h-.81l1.11-3.66a5.65,5.65,0,0,0,.29-1.29.5.5,0,0,0-.08-.31.28.28,0,0,0-.24-.1q-.48,0-1.29,1a11.63,11.63,0,0,0-1.62,3.69l-.21.67h-.82l1.25-4.1a6.1,6.1,0,0,0,.25-1,.3.3,0,0,0,0-.16.14.14,0,0,0-.12-.05.83.83,0,0,0-.48.29,3.51,3.51,0,0,0-.59.82h-.31a3.71,3.71,0,0,1,.81-1.14,1.34,1.34,0,0,1,.85-.45.53.53,0,0,1,.42.18.7.7,0,0,1,.15.48,6,6,0,0,1-.42,1.69,6.07,6.07,0,0,1,1.14-1.66,1.88,1.88,0,0,1,1.24-.7.73.73,0,0,1,.59.23,1,1,0,0,1,.2.69,4.19,4.19,0,0,1-.28,1.35,5.21,5.21,0,0,1,1.23-1.73,1.93,1.93,0,0,1,1.18-.54.91.91,0,0,1,.66.26,1,1,0,0,1,.27.71,2,2,0,0,1,0,.46q0,.18-.33,1l-.53,1.54a5.42,5.42,0,0,0-.33,1.16.35.35,0,0,0,.06.23.23.23,0,0,0,.19.08.79.79,0,0,0,.52-.27A3.76,3.76,0,0,0,114.55,279.33Z"/><path class="cls-2" d="M118.51,278.88h.33q-.87,1.94-2.23,1.93a1.17,1.17,0,0,1-.91-.39,1.53,1.53,0,0,1-.35-1.06,5,5,0,0,1,.45-1.91,5.3,5.3,0,0,1,1.29-1.84,2.35,2.35,0,0,1,1.46-.77.71.71,0,0,1,.58.24.92.92,0,0,1,.2.6,2,2,0,0,1-.74,1.42,7.83,7.83,0,0,1-2.21,1.31,3.67,3.67,0,0,0-.19,1.13,1.05,1.05,0,0,0,.17.66.6.6,0,0,0,.51.22Q117.79,280.41,118.51,278.88Zm-2-.82a5.38,5.38,0,0,0,1.59-1.09,1.92,1.92,0,0,0,.7-1.26.6.6,0,0,0-.11-.39.39.39,0,0,0-.32-.13q-.41,0-1,.8A6.56,6.56,0,0,0,116.48,278.06Z"/><path class="cls-2" d="M127.67,279.33H128a3.24,3.24,0,0,1-.76,1.06,1.39,1.39,0,0,1-.91.42.75.75,0,0,1-.52-.21.78.78,0,0,1-.23-.6,5.14,5.14,0,0,1,.33-1.33l.64-1.86a4.74,4.74,0,0,0,.29-1,.52.52,0,0,0-.09-.34.33.33,0,0,0-.28-.11q-.59,0-1.38,1a12.23,12.23,0,0,0-1.66,3.83l-.18.59h-.81l1.11-3.66a5.65,5.65,0,0,0,.29-1.29.5.5,0,0,0-.08-.31.28.28,0,0,0-.24-.1q-.48,0-1.29,1a11.63,11.63,0,0,0-1.62,3.69l-.21.67h-.82l1.25-4.1a6.1,6.1,0,0,0,.25-1,.3.3,0,0,0,0-.16.14.14,0,0,0-.12-.05.83.83,0,0,0-.48.29,3.51,3.51,0,0,0-.59.82h-.31a3.71,3.71,0,0,1,.81-1.14,1.34,1.34,0,0,1,.85-.45.53.53,0,0,1,.42.18.7.7,0,0,1,.15.48,6,6,0,0,1-.42,1.69,6.07,6.07,0,0,1,1.14-1.66,1.88,1.88,0,0,1,1.24-.7.73.73,0,0,1,.59.23,1,1,0,0,1,.2.69,4.19,4.19,0,0,1-.28,1.35,5.21,5.21,0,0,1,1.23-1.73,1.93,1.93,0,0,1,1.18-.54.91.91,0,0,1,.66.26,1,1,0,0,1,.27.71,2,2,0,0,1,0,.46q0,.18-.33,1l-.53,1.54a5.42,5.42,0,0,0-.33,1.16.35.35,0,0,0,.06.23.23.23,0,0,0,.19.08.79.79,0,0,0,.52-.27A3.76,3.76,0,0,0,127.67,279.33Z"/><path class="cls-2" d="M130.51,276.18q.9-1.35,1.76-1.35a1,1,0,0,1,.92.49,2,2,0,0,1,.32,1.1,5,5,0,0,1-.44,1.88,4.37,4.37,0,0,1-1.34,1.79,2.78,2.78,0,0,1-1.68.72,1.29,1.29,0,0,1-.91-.33,1.14,1.14,0,0,1-.37-.89,5.64,5.64,0,0,1,.29-1.33l1.66-5.48a4.46,4.46,0,0,0,.19-.73.27.27,0,0,0-.09-.23.9.9,0,0,0-.45-.07h-.22l.08-.29a4.73,4.73,0,0,0,1.61-.25H132Zm-1,3.69a.68.68,0,0,0,.15.47.56.56,0,0,0,.43.16q1,0,1.82-1.68a6.58,6.58,0,0,0,.83-2.72,1.19,1.19,0,0,0-.16-.66.5.5,0,0,0-.43-.25,1.57,1.57,0,0,0-1,.63,6.14,6.14,0,0,0-1.1,2.1A7.69,7.69,0,0,0,129.49,279.87Z"/><path class="cls-2" d="M137.46,278.88h.33q-.87,1.94-2.23,1.93a1.17,1.17,0,0,1-.91-.39,1.53,1.53,0,0,1-.35-1.06,5,5,0,0,1,.45-1.91,5.3,5.3,0,0,1,1.29-1.84,2.35,2.35,0,0,1,1.46-.77.71.71,0,0,1,.58.24.92.92,0,0,1,.2.6,2,2,0,0,1-.74,1.42,7.83,7.83,0,0,1-2.21,1.31,3.67,3.67,0,0,0-.19,1.13,1.05,1.05,0,0,0,.17.66.6.6,0,0,0,.51.22Q136.75,280.41,137.46,278.88Zm-2-.82A5.38,5.38,0,0,0,137,277a1.92,1.92,0,0,0,.7-1.26.6.6,0,0,0-.11-.39.39.39,0,0,0-.32-.13q-.41,0-1,.8A6.56,6.56,0,0,0,135.43,278.06Z"/><path class="cls-2" d="M138.86,276.68h-.3a4.69,4.69,0,0,1,.72-1.31,1.17,1.17,0,0,1,.86-.54.48.48,0,0,1,.44.24,1.41,1.41,0,0,1,.14.71,6.84,6.84,0,0,1-.31,1.7s.1-.21.23-.49a8.83,8.83,0,0,1,.89-1.65,1,1,0,0,1,.77-.51.5.5,0,0,1,.53.51.48.48,0,0,1-.12.33.37.37,0,0,1-.28.13.52.52,0,0,1-.38-.23.2.2,0,0,0-.15-.09q-.34,0-1.05,1.64a29,29,0,0,0-1.15,3.09l-.15.49h-.82l1.09-3.62a6.2,6.2,0,0,0,.31-1.41.66.66,0,0,0-.05-.29.17.17,0,0,0-.15-.1c-.15,0-.34.16-.56.49A3.89,3.89,0,0,0,138.86,276.68Z"/><path class="cls-2" d="M146.53,276.69h-.29a2.68,2.68,0,0,1,.43-1.41,1,1,0,0,1,.74-.44.91.91,0,0,1,.81.62,4.46,4.46,0,0,1,.3,1.88,11.33,11.33,0,0,1-.38,3,10.23,10.23,0,0,0,1.31-1.86,4.09,4.09,0,0,0,.64-1.92,1.45,1.45,0,0,0-.22-.75,1.23,1.23,0,0,1-.22-.55.48.48,0,0,1,.11-.31.32.32,0,0,1,.26-.13.46.46,0,0,1,.4.28,1.73,1.73,0,0,1,.16.83,5.27,5.27,0,0,1-.5,2,9.34,9.34,0,0,1-1.47,2.34,27.47,27.47,0,0,1-1.93,2.09,7.81,7.81,0,0,1-1.65,1.3,2.89,2.89,0,0,1-1.36.37q-.87,0-.87-.5a.37.37,0,0,1,.18-.32.7.7,0,0,1,.39-.12,2.15,2.15,0,0,1,.49.09,2.78,2.78,0,0,0,.72.12,1.58,1.58,0,0,0,.8-.23,5.52,5.52,0,0,0,1-.79,4.44,4.44,0,0,0,.81-1,5.43,5.43,0,0,0,.41-1.53,14.37,14.37,0,0,0,.18-2.35,4.78,4.78,0,0,0-.18-1.48c-.12-.35-.26-.52-.44-.52Q146.64,275.41,146.53,276.69Z"/><path class="cls-2" d="M151.11,278.82a4.9,4.9,0,0,1,.38-1.79,3.88,3.88,0,0,1,1.09-1.57,2.17,2.17,0,0,1,1.38-.6,1.21,1.21,0,0,1,1,.52,2.25,2.25,0,0,1,.39,1.4,4.8,4.8,0,0,1-.44,2,3.81,3.81,0,0,1-1.1,1.47,2.14,2.14,0,0,1-1.3.51,1.35,1.35,0,0,1-1-.44A2.15,2.15,0,0,1,151.11,278.82Zm.73.79a1,1,0,0,0,.19.63.62.62,0,0,0,.53.26q.92,0,1.51-1.74a9,9,0,0,0,.59-2.65,1.15,1.15,0,0,0-.18-.71.64.64,0,0,0-.54-.24q-.85,0-1.47,1.61A8.06,8.06,0,0,0,151.85,279.61Z"/><path class="cls-2" d="M161.23,279.21h.29q-.58,1.6-1.57,1.6a.65.65,0,0,1-.5-.18.8.8,0,0,1-.17-.55,6.19,6.19,0,0,1,.37-1.66q-1.2,2.4-2.37,2.4a.88.88,0,0,1-.68-.27.94.94,0,0,1-.25-.66,4.69,4.69,0,0,1,.31-1.29l.84-2.45a3.45,3.45,0,0,0,.18-.66.16.16,0,0,0-.18-.18q-.43,0-.94,1.16h-.33a3.38,3.38,0,0,1,.72-1.17,1.26,1.26,0,0,1,.88-.45.66.66,0,0,1,.46.17.64.64,0,0,1,.19.5,3.93,3.93,0,0,1-.24,1l-.86,2.53a4.07,4.07,0,0,0-.25,1,.48.48,0,0,0,.1.32.35.35,0,0,0,.28.11q.6,0,1.43-1.28a15.41,15.41,0,0,0,1.59-3.8l.12-.39h.82l-1.2,3.92A6.58,6.58,0,0,0,160,280a.41.41,0,0,0,.07.26.25.25,0,0,0,.21.08Q160.76,280.34,161.23,279.21Z"/><path class="cls-2" d="M170,274.94h.82l-1.22,4a5.8,5.8,0,0,0-.27,1.05.32.32,0,0,0,.06.21.23.23,0,0,0,.18.07q.47,0,1.09-1.08H171a3.66,3.66,0,0,1-.76,1.12,1.37,1.37,0,0,1-.91.5.57.57,0,0,1-.49-.24,1,1,0,0,1-.17-.59,2.67,2.67,0,0,1,.14-.73,4.39,4.39,0,0,1-.89,1,1.72,1.72,0,0,1-1.1.52,1.05,1.05,0,0,1-.82-.41,1.65,1.65,0,0,1-.34-1.1,4.46,4.46,0,0,1,.53-2,5.42,5.42,0,0,1,1.39-1.77,2.5,2.5,0,0,1,1.47-.71.77.77,0,0,1,.84.68Zm-3.58,4.58a1.35,1.35,0,0,0,.14.68.45.45,0,0,0,.41.23,1.71,1.71,0,0,0,1.08-.66,5.52,5.52,0,0,0,1.1-2,7.25,7.25,0,0,0,.46-1.86.81.81,0,0,0-.15-.49.49.49,0,0,0-.42-.2q-.83,0-1.73,1.65A6.05,6.05,0,0,0,166.45,279.52Z"/><path class="cls-2" d="M171.71,276.68h-.3a4.69,4.69,0,0,1,.72-1.31,1.17,1.17,0,0,1,.86-.54.48.48,0,0,1,.44.24,1.41,1.41,0,0,1,.14.71,6.84,6.84,0,0,1-.31,1.7s.1-.21.23-.49a8.83,8.83,0,0,1,.89-1.65,1,1,0,0,1,.77-.51.5.5,0,0,1,.53.51.48.48,0,0,1-.12.33.37.37,0,0,1-.28.13.52.52,0,0,1-.38-.23.2.2,0,0,0-.15-.09q-.34,0-1.05,1.64a29,29,0,0,0-1.15,3.09l-.15.49h-.82l1.09-3.62a6.2,6.2,0,0,0,.31-1.41.66.66,0,0,0-.05-.29.17.17,0,0,0-.15-.1c-.15,0-.34.16-.56.49A3.89,3.89,0,0,0,171.71,276.68Z"/><path class="cls-2" d="M178.49,278.88h.33q-.87,1.94-2.23,1.93a1.17,1.17,0,0,1-.91-.39,1.53,1.53,0,0,1-.35-1.06,5,5,0,0,1,.45-1.91,5.3,5.3,0,0,1,1.29-1.84,2.35,2.35,0,0,1,1.46-.77.71.71,0,0,1,.58.24.92.92,0,0,1,.2.6,2,2,0,0,1-.74,1.42,7.83,7.83,0,0,1-2.21,1.31,3.67,3.67,0,0,0-.19,1.13,1.05,1.05,0,0,0,.17.66.6.6,0,0,0,.51.22Q177.78,280.41,178.49,278.88Zm-2-.82A5.38,5.38,0,0,0,178,277a1.92,1.92,0,0,0,.7-1.26.6.6,0,0,0-.11-.39.39.39,0,0,0-.32-.13q-.41,0-1,.8A6.56,6.56,0,0,0,176.46,278.06Z"/><path class="cls-2" d="M185.71,279h.3q-.7,1.83-1.79,1.83a.77.77,0,0,1-.6-.25.9.9,0,0,1-.23-.62,9.19,9.19,0,0,1,.44-1.83l1.6-5.28a5,5,0,0,0,.21-.78.27.27,0,0,0-.09-.23.93.93,0,0,0-.46-.07h-.27l.09-.29a4.77,4.77,0,0,0,1.66-.25h.17l-2.2,7.25c0,.11-.1.32-.2.62a3.16,3.16,0,0,0-.2.9.51.51,0,0,0,.08.31.28.28,0,0,0,.24.1,1,1,0,0,0,.58-.32A3.13,3.13,0,0,0,185.71,279Z"/><path class="cls-2" d="M186.56,278.82a4.9,4.9,0,0,1,.38-1.79,3.88,3.88,0,0,1,1.09-1.57,2.17,2.17,0,0,1,1.38-.6,1.21,1.21,0,0,1,1,.52,2.25,2.25,0,0,1,.39,1.4,4.8,4.8,0,0,1-.44,2,3.81,3.81,0,0,1-1.1,1.47,2.14,2.14,0,0,1-1.3.51,1.35,1.35,0,0,1-1-.44A2.15,2.15,0,0,1,186.56,278.82Zm.73.79a1,1,0,0,0,.19.63.62.62,0,0,0,.53.26q.92,0,1.51-1.74a9,9,0,0,0,.59-2.65,1.15,1.15,0,0,0-.18-.71.64.64,0,0,0-.54-.24q-.85,0-1.47,1.61A8.06,8.06,0,0,0,187.29,279.61Z"/><path class="cls-2" d="M191.85,275.89h-.28q.32-1.06.88-1.06.3,0,.59.5a.31.31,0,0,0,.27.19c.11,0,.19-.09.25-.28s.2-.41.33-.41.16,0,.16.15a1.5,1.5,0,0,1-.21.54,20.8,20.8,0,0,0-1.13,2.37,4.35,4.35,0,0,0-.31,1.5,1.18,1.18,0,0,0,.21.74.59.59,0,0,0,.47.26q.8,0,1.55-1.25a4.68,4.68,0,0,0,.76-2.42,2.36,2.36,0,0,0-.2-.93,1.3,1.3,0,0,1-.12-.5q0-.46.35-.46a.38.38,0,0,1,.33.24,1.36,1.36,0,0,1,.13.65,8,8,0,0,1-.4,2.23,5,5,0,0,1-1.14,2.09,2.17,2.17,0,0,1-1.56.77,1.15,1.15,0,0,1-.86-.33,1.28,1.28,0,0,1-.33-.93,3.39,3.39,0,0,1,.33-1.37,12.89,12.89,0,0,1,1.13-1.91q.12-.18.23-.36l.12-.2a1,1,0,0,1-.49.17.53.53,0,0,1-.39-.16.5.5,0,0,0-.32-.17Q192,275.55,191.85,275.89Z"/><path class="cls-2" d="M199.77,278.88h.33q-.87,1.94-2.23,1.93a1.17,1.17,0,0,1-.91-.39,1.53,1.53,0,0,1-.35-1.06,5,5,0,0,1,.45-1.91,5.3,5.3,0,0,1,1.29-1.84,2.35,2.35,0,0,1,1.46-.77.71.71,0,0,1,.58.24.92.92,0,0,1,.2.6,2,2,0,0,1-.74,1.42,7.83,7.83,0,0,1-2.21,1.31,3.67,3.67,0,0,0-.19,1.13,1.05,1.05,0,0,0,.17.66.6.6,0,0,0,.51.22Q199.05,280.41,199.77,278.88Zm-2-.82a5.38,5.38,0,0,0,1.59-1.09,1.92,1.92,0,0,0,.7-1.26.6.6,0,0,0-.11-.39.39.39,0,0,0-.32-.13q-.41,0-1,.8A6.56,6.56,0,0,0,197.74,278.06Z"/><path class="cls-2" d="M205.79,279.38h.33a4,4,0,0,1-.78,1,1.33,1.33,0,0,1-.86.44.68.68,0,0,1-.55-.22,1,1,0,0,1-.18-.65,1.81,1.81,0,0,1,0-.36q-1,1.23-1.8,1.23a1,1,0,0,1-.79-.38,1.61,1.61,0,0,1-.33-1.09,4.94,4.94,0,0,1,.55-2.13,4.8,4.8,0,0,1,1.35-1.76,2.44,2.44,0,0,1,1.4-.63.92.92,0,0,1,.52.14,1,1,0,0,1,.35.43l.83-2.75a3.29,3.29,0,0,0,.15-.59.27.27,0,0,0-.09-.23.92.92,0,0,0-.46-.07h-.19l.09-.29a4.17,4.17,0,0,0,1.58-.25h.17l-2.19,7.2a9.73,9.73,0,0,0-.4,1.57.42.42,0,0,0,.06.26.22.22,0,0,0,.19.09.7.7,0,0,0,.45-.24A3.64,3.64,0,0,0,205.79,279.38Zm-4.13.29a1,1,0,0,0,.13.58.45.45,0,0,0,.39.19,1.63,1.63,0,0,0,1.06-.64,5.94,5.94,0,0,0,1.11-2.11,8.23,8.23,0,0,0,.51-1.86.7.7,0,0,0-.17-.46.56.56,0,0,0-.45-.21,1.35,1.35,0,0,0-.93.52,7,7,0,0,0-1.07,1.81A5.52,5.52,0,0,0,201.67,279.67Z"/><path class="cls-2" d="M206.81,279.87a1,1,0,0,1,2.06,0,1,1,0,0,1-.3.73,1,1,0,0,1-1.46,0A1,1,0,0,1,206.81,279.87Z"/><path class="cls-3" d="M29.13,338.14v-2.77c0-.38.13-.63.32-.63s.13.06.25.13c4.47,2.71,10,4.66,14.93,4.66,3.59,0,6.87-.76,6.87-3,0-1.76-4.22-3.65-7.18-5-5.42-2.33-13.74-5.92-13.74-12.35,0-8.63,7.88-11.59,15.88-11.59s17.77,1.89,18,7.88a4.94,4.94,0,0,1-5.23,5,4.34,4.34,0,0,1-4.6-4.41,3.81,3.81,0,0,1,.25-1.51,15.82,15.82,0,0,0-5.1-.88c-3.46,0-5.86,1.2-5.86,2.65,0,2.77,7.06,5.61,9.26,6.55,5.17,2.33,13.29,6.11,13.29,12.54,0,7.31-9.89,11.09-18.59,11.09S32,342,29.2,338.52Z"/><path class="cls-3" d="M106.63,332.16c0,7.69-5.67,13.92-19,13.92s-19-6.24-19-13.92,5.73-13.92,19-13.92S106.63,324.47,106.63,332.16Zm-14.87,0c0-4.47.13-9.51-4.16-9.51s-4,5-4,9.51-.19,9.58,4,9.58S91.76,336.63,91.76,332.16Z"/><path class="cls-3" d="M69.08,385c-1,.06-2.39.13-3.91.13-3.65,0-8.32-.06-8.38-3.47V369.33H46.52v12.92c0,1.2.06,2.52-2.58,2.77-1,.06-2.39.13-3.91.13-3.72,0-8.32-.06-8.44-3.47V353.89c0-.32-.63-.25-1.07-.19s-.76.19-1.13.25a.55.55,0,0,1-.69-.44,15.07,15.07,0,0,1-.63-3.28c-.13-.63.25-.69.76-1a28.7,28.7,0,0,1,9.89-1.64c3.59.06,7.81.13,7.81,3.53v13H56.79V350.49c0-1.2-.13-2.52,2.58-2.71,1.07-.06,2.58-.19,4.16-.19,3.72,0,8.13.13,8.13,3.53v31.12C71.66,383.44,71.79,384.76,69.08,385Z"/><path class="cls-3" d="M119.67,386.59c0,.13,0,.38-.06.44-4.35,4.22-10.14,6.87-15.5,6.87-6.68,0-8.63-4.6-8.95-8.76H80.1c-.76.76-1.45,1.76-2.21,2.65C75.13,391.32,72,394,69,394s-5.54-2.83-7.31-6.87c-.13-.32-.06-.69.25-.69h3.4a.58.58,0,0,1,.32.19,2.27,2.27,0,0,0,1.58,1.2c1.64.38,2.77-.88,3.84-2.08L93.84,358c1.2-1.39,1.89-1.76,4.35-1.76,3-.06,9.45,1.2,11.4,3.15a2.56,2.56,0,0,1,.44,1.83v21.93c0,2.33,1.13,3.09,2.46,3.09,2,0,4.72-1.58,6.55-2.9l.25-.13c.19,0,.38.25.38.63ZM95.1,379.91V366.62c-3.65,4.54-7.25,8.76-10.9,13.29Z"/><path class="cls-3" d="M128.93,366.56v11.72c0,1.2.13,2.52-2.58,2.77-1,.06-2.39.13-3.84.13-3.09,0-6.62-.32-8-1.7a2.62,2.62,0,0,1-.38-1.76V353.64c0-1.2,0-2.33,2.58-2.58,1-.06,2.39-.13,3.84-.13,3.65,0,8.38.06,8.38,3.47v7.37c7.25-1.58,9.89-3.91,9.89-6.87,0-4.54-5-5.8-10.71-5.8a74.94,74.94,0,0,0-14.74,1.76.89.89,0,0,1-.76-.5c-.06-.19-.57-2.52-.63-3.28a.82.82,0,0,1,.57-.88c9.45-2.39,18-3.65,23.31-3.65,13.86.06,15.94,6.74,15.94,10.14C151.8,358.56,146.57,364.73,128.93,366.56Z"/><path class="cls-3" d="M152.55,388.54v11.72c0,1.2.13,2.52-2.58,2.77-1,.06-2.39.13-3.84.13-3.09,0-6.62-.32-8-1.7a2.62,2.62,0,0,1-.38-1.76V375.63c0-1.2,0-2.33,2.58-2.58,1-.06,2.39-.13,3.84-.13,3.65,0,8.38.06,8.38,3.47v7.37c7.25-1.58,9.89-3.91,9.89-6.87,0-4.54-5-5.8-10.71-5.8A75,75,0,0,0,137,372.86a.89.89,0,0,1-.76-.5c-.06-.19-.57-2.52-.63-3.28a.82.82,0,0,1,.57-.88c9.45-2.39,18-3.65,23.31-3.65,13.86.06,15.94,6.74,15.94,10.14C175.42,380.54,170.19,386.72,152.55,388.54Z"/><path class="cls-3" d="M193.31,368v14.24c0,1.2.06,2.52-2.58,2.77-1,.06-2.39.13-3.84.13-3.09,0-6.62-.32-8-1.7-.38-.32-.44-.95-.44-1.76V368.19c-3.15-3.78-9.45-11.34-12.6-15.06-.82-1.13-1.51-2.46,1-3.65a30.54,30.54,0,0,1,9.89-2.08,5.72,5.72,0,0,1,2.21.44,4.38,4.38,0,0,1,1.32,1.32c3.21,3.84,6.68,7.88,9.89,11.72,1.76-2,3.53-4,5.29-6,1.89-2.21,4.16-5.61,4.47-7.87a1.22,1.22,0,0,1,1.58-1c1.89.57,5.17.82,5.17,4.28,0,2-1.39,5-5.54,9.45C198.92,362.15,196.21,365,193.31,368Z"/><path class="cls-3" d="M42.31,414.64a.41.41,0,0,1,.42.44v3.5c0,2.18-2.62,3.94-5.94,3.94a9.87,9.87,0,0,1-1.9-.2,2.13,2.13,0,0,0-.38,1c0,.3.38.52.88.52l1.22-.14c.44-.06.88-.1,1.46-.14,1,0,3.5.14,3.66,2.12s-2,3.68-3.66,4.1a.34.34,0,0,1-.2-.06l-.74-.64c-.14-.08-.12-.22,0-.34a6.46,6.46,0,0,0,1.1-.88,1.52,1.52,0,0,0,.56-1c0-.26-.2-.46-.64-.46-1.06,0-3.06.84-4.2.84a2.28,2.28,0,0,1-2.52-2,4.4,4.4,0,0,1,2-3.36,3.8,3.8,0,0,1-2.62-3.3v-3.34c0-.36,0-.8.82-.82s3.16.4,3.76,1a.83.83,0,0,1,.12.56v2.58c0,1.4.14,2.54,1.24,2.54S38,420,38,418.58v-3.26a.4.4,0,0,1,.34-.44Z"/><path class="cls-3" d="M55.85,419.06c0,2.44-1.8,4.42-6,4.42s-6-2-6-4.42,1.82-4.42,6-4.42S55.85,416.62,55.85,419.06Zm-4.72,0c0-1.42,0-3-1.32-3s-1.28,1.6-1.28,3-.06,3,1.28,3S51.13,420.48,51.13,419.06Z"/><path class="cls-3" d="M63.75,421.62c-1.44,1.1-2.58,1.82-4.12,1.82a2.72,2.72,0,0,1-2.84-2.9V415.3c0-.38,0-.86.82-.88s3.16.4,3.76,1a.83.83,0,0,1,.12.56v4.24c0,.4.26.54.6.54a4.34,4.34,0,0,0,1.78-.64v-4.82a.42.42,0,0,1,.36-.44l4-.24a.42.42,0,0,1,.4.44V420c0,.74.38,1,.8,1a4.46,4.46,0,0,0,2.08-.92s.06,0,.08,0,.1.08.1.2v.88c0,.06,0,.12,0,.12a6.88,6.88,0,0,1-4.92,2.2A2.5,2.5,0,0,1,64,421.34,1.88,1.88,0,0,1,63.75,421.62Z"/><path class="cls-3" d="M92.35,421.1l0,.14a7,7,0,0,1-4.94,2.18,2.56,2.56,0,0,1-2.7-2.08l-.28.38a3.69,3.69,0,0,1-3.18,1.7c-2.2,0-3.52-1.46-3.52-4,0-2.78,2.28-4.76,7.6-4.76a27.28,27.28,0,0,1,3.58.3.42.42,0,0,1,.38.42V420c0,.74.36,1,.8,1a4.53,4.53,0,0,0,2.1-.92c.06,0,.08,0,.1,0s.08.08.08.2Zm-7.8-4.92c-1.62,0-2.74.8-2.74,2.6s1.1,1.9,1.46,1.9a2,2,0,0,0,1.28-.54Z"/><path class="cls-3" d="M100.69,414.88c-.14.66-.64,2.34-.7,2.5a.22.22,0,0,1-.2.12,3.48,3.48,0,0,0-.78-.08,4.52,4.52,0,0,0-1.72.3.57.57,0,0,0-.24.48v4.5a.44.44,0,0,1-.38.44l-4,.24a.42.42,0,0,1-.4-.42v-7.4c0-.4,0-.86.82-.88s3,.38,3.64,1a1.56,1.56,0,0,1,.1.72c.88-.82,2.44-1.86,3.72-1.76C100.69,414.66,100.69,414.74,100.69,414.88Z"/><path class="cls-3" d="M105.69,420.34a4.86,4.86,0,0,1,0-.78c0-.06.06-.12.14-.16,1.4-.22,2.62-.66,2.62-1.18s-.5-.84-1.24-.76a1.89,1.89,0,0,0-1.82,2.1c0,1.14.28,1.92,2.14,1.92a12.82,12.82,0,0,0,5.36-1.42.2.2,0,0,1,.12,0c.08,0,.1.08.1.2v.88a.15.15,0,0,1-.06.14,14,14,0,0,1-6.62,2.22c-2.64.18-5.86-1.14-5.86-4.18s3.68-4.64,6.44-4.64c3.8,0,4.5,1.72,4.6,2.38.34,2.64-3.18,3.48-5.76,3.5,0,0-.08-.06-.12-.16Z"/><path class="cls-3" d="M134.19,421.12a.24.24,0,0,1,0,.14,6.88,6.88,0,0,1-4.92,2.16,2.73,2.73,0,0,1-2.82-2.88l-.28-2.92c0-.4-.32-.54-.74-.54a4.65,4.65,0,0,0-1.92.64v5a.42.42,0,0,1-.34.44l-4,.24a.39.39,0,0,1-.38-.42v-12c0-.38,0-.86.82-.88s3.16.4,3.76,1a.86.86,0,0,1,.12.56v4.7a8.38,8.38,0,0,1,4.54-1.9,2.77,2.77,0,0,1,2.84,2.88l.26,2.68c.06.74.36,1,.82,1a4.42,4.42,0,0,0,2.06-.92.13.13,0,0,1,.1,0c.06,0,.1.08.1.2Z"/><path class="cls-3" d="M138.83,420.34a4.86,4.86,0,0,1,0-.78c0-.06.06-.12.14-.16,1.4-.22,2.62-.66,2.62-1.18s-.5-.84-1.24-.76a1.89,1.89,0,0,0-1.82,2.1c0,1.14.28,1.92,2.14,1.92a12.82,12.82,0,0,0,5.36-1.42.2.2,0,0,1,.12,0c.08,0,.1.08.1.2v.88a.15.15,0,0,1-.06.14,14,14,0,0,1-6.62,2.22c-2.64.18-5.86-1.14-5.86-4.18s3.68-4.64,6.44-4.64c3.8,0,4.5,1.72,4.6,2.38.34,2.64-3.18,3.48-5.76,3.5,0,0-.08-.06-.12-.16Z"/><path class="cls-3" d="M154.49,414.88c-.14.66-.64,2.34-.7,2.5a.22.22,0,0,1-.2.12,3.48,3.48,0,0,0-.78-.08,4.52,4.52,0,0,0-1.72.3.57.57,0,0,0-.24.48v4.5a.44.44,0,0,1-.38.44l-4,.24a.42.42,0,0,1-.4-.42v-7.4c0-.4,0-.86.82-.88s3,.38,3.64,1a1.56,1.56,0,0,1,.1.72c.88-.82,2.44-1.86,3.72-1.76C154.49,414.66,154.49,414.74,154.49,414.88Z"/><path class="cls-3" d="M159.47,420.34a4.86,4.86,0,0,1,0-.78c0-.06.06-.12.14-.16,1.4-.22,2.62-.66,2.62-1.18s-.5-.84-1.24-.76a1.89,1.89,0,0,0-1.82,2.1c0,1.14.28,1.92,2.14,1.92a12.82,12.82,0,0,0,5.36-1.42.2.2,0,0,1,.12,0c.08,0,.1.08.1.2v.88a.15.15,0,0,1-.06.14,14,14,0,0,1-6.62,2.22c-2.64.18-5.86-1.14-5.86-4.18s3.68-4.64,6.44-4.64c3.8,0,4.5,1.72,4.6,2.38.34,2.64-3.18,3.48-5.76,3.5,0,0-.08-.06-.12-.16Z"/><path class="cls-3" d="M180.65,421.1s0,.12,0,.14a7.28,7.28,0,0,1-5.08,2.18,2.91,2.91,0,0,1-3-3.2V416.5h-.86c-.1,0-.16-.1-.16-.22V415.2c0-.14.06-.24.16-.24H173c.08-.24.2-.72.3-1a1,1,0,0,1,.18-.34,4.92,4.92,0,0,1,2.9-1c.82,0,.82.42.82.88V415h1.9c.08,0,.14.1.14.24v1.08c0,.12-.06.22-.14.22h-1.9V420a.91.91,0,0,0,1,1,4.88,4.88,0,0,0,2.22-.92.22.22,0,0,1,.14,0c.06,0,.08.08.08.2Z"/><path class="cls-3" d="M192.19,419.06c0,2.44-1.8,4.42-6,4.42s-6-2-6-4.42,1.82-4.42,6-4.42S192.19,416.62,192.19,419.06Zm-4.72,0c0-1.42,0-3-1.32-3s-1.28,1.6-1.28,3-.06,3,1.28,3S187.47,420.48,187.47,419.06Z"/><path class="cls-3" d="M207.55,421.1a.27.27,0,0,1,0,.14v0a6.88,6.88,0,0,1-4.92,2.2,2.5,2.5,0,0,1-2.68-2.06c-.1.1-.2.26-.3.38a3.74,3.74,0,0,1-3.2,1.68c-2.18,0-3.52-1.46-3.52-4s2.2-4.52,6.84-4.74v-3.72c0-.38,0-.86.82-.88s3.16.38,3.78,1a.81.81,0,0,1,.14.58V420c0,.74.36,1,.78,1a4.53,4.53,0,0,0,2.1-.92s0,0,.06,0,.12.08.12.2Zm-7.8-1v-4c-1.6,0-2.7.8-2.7,2.6s1.1,1.9,1.42,1.9A2,2,0,0,0,199.75,420.14Z"/><path class="cls-3" d="M222,421.1l0,.14a7,7,0,0,1-4.94,2.18,2.56,2.56,0,0,1-2.7-2.08l-.28.38a3.69,3.69,0,0,1-3.18,1.7c-2.2,0-3.52-1.46-3.52-4,0-2.78,2.28-4.76,7.6-4.76a27.28,27.28,0,0,1,3.58.3.42.42,0,0,1,.38.42V420c0,.74.36,1,.8,1a4.53,4.53,0,0,0,2.1-.92c.06,0,.08,0,.1,0s.08.08.08.2Zm-7.8-4.92c-1.62,0-2.74.8-2.74,2.6s1.1,1.9,1.46,1.9a2,2,0,0,0,1.28-.54Z"/><path class="cls-3" d="M233.45,414.64a.41.41,0,0,1,.42.44v3.5c0,2.18-2.62,3.94-5.94,3.94a9.87,9.87,0,0,1-1.9-.2,2.13,2.13,0,0,0-.38,1c0,.3.38.52.88.52l1.22-.14c.44-.06.88-.1,1.46-.14,1,0,3.5.14,3.66,2.12s-2,3.68-3.66,4.1a.34.34,0,0,1-.2-.06l-.74-.64c-.14-.08-.12-.22,0-.34a6.46,6.46,0,0,0,1.1-.88,1.52,1.52,0,0,0,.56-1c0-.26-.2-.46-.64-.46-1.06,0-3.06.84-4.2.84a2.28,2.28,0,0,1-2.52-2,4.4,4.4,0,0,1,2-3.36,3.8,3.8,0,0,1-2.62-3.3v-3.34c0-.36,0-.8.82-.82s3.16.4,3.76,1a.83.83,0,0,1,.12.56v2.58c0,1.4.14,2.54,1.24,2.54s1.24-1.14,1.24-2.54v-3.26a.4.4,0,0,1,.34-.44Z"/><path class="cls-3" d="M238.39,423.46a1.88,1.88,0,1,1,2.08-1.88A2,2,0,0,1,238.39,423.46Z"/><path class="cls-4" d="M37.52,485.4v49.69H6.82V485.4ZM16.43,512.51H12.11v4.39h4.32Zm0,7.45H12.11v4.39h4.32Zm0,7.52H12.11v4.4h4.32ZM35,492v-3.43H16.14V492h7.52v34.71h3.8V492Z"/><path class="cls-4" d="M68.21,485.4v49.69H37.52V485.4ZM57.56,506.18v20h3.8V488.53h-3.8v5.81H48.17v-5.81h-3.8v37.69h3.8v-20ZM48.17,499v-2h9.39v2Zm0,4.69v-2.09h9.39v2.09ZM50.78,517H55.1v-4.4H50.78Zm0,7.52H55.1v-4.4H50.78Zm0,7.45H55.1v-4.39H50.78Z"/><path class="cls-4" d="M98.9,485.4v49.69H68.21V485.4Zm-9.46,34.42h3.8L85,488.53H81.62l-8.27,31.29H77l.89-3.5H88.55Zm-10.35-8.12h8.27l.52,2.09H78.49Zm7.6-2.61H79.76l.52-2h5.81Zm-3.5-13.48,2.31,8.86H80.88ZM81,524.51h4.32v-4.4H81Zm0,7.6h4.32v-4.4H81Z"/><path class="cls-4" d="M129.67,485.4v49.69H99V485.4Zm-10,17.13v24.06h3.8V488.53h-3.8v8.87l-10.5-8.87h-3.65v31.29h3.8V494ZM109.93,532v-4.32h-4.4V532Zm7.45,0v-4.32H113V532Z"/><path class="cls-4" d="M160.44,485.4v49.69H129.75V485.4Zm-8.72,3.13h-4.62l-8.94,8.79v-8.79h-3.8v31.29h3.8v-18.1l2.46-2.46,12.74,26.67h4.32l-14.15-29.2Zm1.27,6.71h4.32v-4.4H153Zm0,7.52h4.32v-4.4H153Zm0,7.45h4.32v-4.4H153Z"/><path class="cls-4" d="M203.05,485.4v49.69H172.36V485.4Zm-20.63,3.13H178.1l7.82,14.15v20.11h3.72V502.61l7.82-14.08h-4l-5.51,10.21Zm16.31,16.39h-4.32v4.4h4.32Zm0,7.52h-4.32v4.39h4.32Zm0,7.52h-4.32v4.39h4.32Zm0,7.52h-4.32v4.4h4.32Z"/><path class="cls-4" d="M232.63,485.4v49.69H201.94V485.4Zm-25.85,12.81a10.06,10.06,0,1,0,10.06-10.06A10.08,10.08,0,0,0,206.78,498.21Zm16.17,0a6.11,6.11,0,1,1-6.11-6A6,6,0,0,1,222.95,498.21Zm-3.8,13.11h-4.32v4.4h4.32Zm0,7.45h-4.32v4.4h4.32Zm0,7.52h-4.32v4.39h4.32Z"/><path class="cls-4" d="M263.4,485.4v49.69H232.71V485.4Zm-15.35,34c-3.72,0-5.07-2.23-5.07-7.37V488.53h-3.8v23.91c0,6.93,3.13,10.5,9.09,10.5s8.94-3.58,8.94-10.5V488.53h-3.8v23.54C253.42,517.51,252,519.44,248.05,519.44Zm.15,8.19V532h4.4v-4.32Zm7.52,0V532h4.39v-4.32Z"/><path class="cls-5" d="M76.58,544.47q0,.11-.45.14a1.63,1.63,0,0,0-.72.15,2.56,2.56,0,0,0-.57.65l-.43.62-5.47,7.54q-.43.59-.56.59c-.06,0-.08,0-.08-.11v-.41l.13-4.54L65,553.61c-.3.39-.49.59-.57.59s-.08,0-.08-.11v-.45l.28-8.65a.29.29,0,0,0-.27-.31,2.37,2.37,0,0,0-.48,0c-.21,0-.32,0-.32-.1s.07-.14.21-.14h.14l.63,0q.52,0,1,0h1.44a1,1,0,0,1,.25,0q.11,0,.11.07a.11.11,0,0,1-.1.12l-.62.08q-.67.07-.69.32l0,.63-.27,6.59,2.77-3.63,0-3.5a.43.43,0,0,0-.13-.37,1,1,0,0,0-.53-.09H67.6c-.09,0-.14,0-.14-.08s.07-.14.22-.14h4.19l.92,0H73c.14,0,.21,0,.21.1s-.11.12-.34.13a2.45,2.45,0,0,0-.94.19,2.34,2.34,0,0,0-.64.68l-1.55,2.14-.13,4.54,4.52-6.27a6.1,6.1,0,0,0,.7-1.06c0-.14-.11-.21-.34-.21H74q-.25,0-.25-.11c0-.09.09-.13.27-.12h1.4l1,0a.11.11,0,0,1,.08,0C76.55,544.4,76.58,544.42,76.58,544.47Zm-5.28.35q0-.2-.69-.2-.92,0-.92.39v.49l0,1.63L71,545.27l.24-.32C71.27,544.89,71.3,544.85,71.3,544.82Z"/><path class="cls-5" d="M80.58,553q0,.1-.27.32a2.94,2.94,0,0,1-1.81.84.9.9,0,0,1-.63-.22.73.73,0,0,1-.24-.57,3.2,3.2,0,0,1,.34-1l1.24-2.76a3.22,3.22,0,0,0,.31-.85q0-.43-.46-.43a2.29,2.29,0,0,0-1.4.78,6.84,6.84,0,0,0-1,1.09,10.31,10.31,0,0,0-.78,1.51l-.91,2a1.42,1.42,0,0,1-.15.31.25.25,0,0,1-.17,0h-1s-.06,0-.06,0a1.08,1.08,0,0,1,.1-.28L77.63,545a3,3,0,0,0,.21-.55c0-.08,0-.12-.06-.13h-.46c-.22,0-.34,0-.34-.12s0-.06.1-.06h1.19l.59,0,.22,0c.08,0,.13,0,.13.1a.26.26,0,0,1-.06.17,2.77,2.77,0,0,1-.18.38l-2.27,5a8.19,8.19,0,0,1,1.47-1.38,2.22,2.22,0,0,1,1.23-.38,1.38,1.38,0,0,1,.85.25.75.75,0,0,1,.33.63,3.19,3.19,0,0,1-.32,1.16L79,553a2.82,2.82,0,0,0-.24.66.19.19,0,0,0,.21.21,2.34,2.34,0,0,0,1.28-.71q.21-.18.28-.18S80.58,553,80.58,553Z"/><path class="cls-5" d="M87.9,548.15a1.43,1.43,0,0,1-.11.29l-1.85,4.18a2.52,2.52,0,0,0-.27.92.32.32,0,0,0,.36.36,1.47,1.47,0,0,0,1.09-.74c.07-.1.13-.15.17-.15a0,0,0,0,1,.06.06q0,.16-.31.49a1.94,1.94,0,0,1-1.47.66,1.13,1.13,0,0,1-.71-.21.66.66,0,0,1-.27-.55,1.51,1.51,0,0,1,.1-.49,2.49,2.49,0,0,1-2,1.29,1.6,1.6,0,0,1-1.19-.47,1.63,1.63,0,0,1-.46-1.19,3.62,3.62,0,0,1,.53-1.75,6.7,6.7,0,0,1,1.41-1.73,3.51,3.51,0,0,1,2.21-1.06,1,1,0,0,1,1.18,1l.35-.74c.07-.15.14-.22.2-.22l.17,0,.2,0a1.38,1.38,0,0,0,.48-.07l.1,0C87.88,548.05,87.9,548.08,87.9,548.15Zm-1.76,1.16a1,1,0,0,0-.26-.7.89.89,0,0,0-.67-.26,1.77,1.77,0,0,0-1.34.82,8.7,8.7,0,0,0-1.19,2,4.7,4.7,0,0,0-.45,1.82q0,.95.78.95a1.5,1.5,0,0,0,1-.49,4,4,0,0,0,.88-1.23L86,549.85A1.6,1.6,0,0,0,86.14,549.31Z"/><path class="cls-5" d="M92.44,548.22q0,.2-.59.21h-.78l-1.89,4.24a3.16,3.16,0,0,0-.31.87q0,.29.43.29a1.39,1.39,0,0,0,1.12-.66c.08-.09.13-.14.17-.14s.11,0,.11.1-.15.32-.46.59a1.88,1.88,0,0,1-1.27.46,1.27,1.27,0,0,1-.82-.25.79.79,0,0,1-.32-.64,2.82,2.82,0,0,1,.32-.94L90,548.43h-.57c-.16,0-.24,0-.24-.09s.07-.17.2-.17h.73l.24-.6c.08-.21.15-.31.2-.31l.22,0,.23,0a1.23,1.23,0,0,0,.45-.13l.1,0s.07,0,.07.05l-.15.33-.31.66H92l.17,0,.11,0C92.39,548.11,92.44,548.15,92.44,548.22Z"/><path class="cls-5" d="M101.51,548.51a.43.43,0,0,1-.48.49.34.34,0,0,1-.32-.27s0-.06-.07-.06-.29.25-.6.76l-1.44,2.36q-.08.15-2,3a10.21,10.21,0,0,1-2,2.36,1.93,1.93,0,0,1-1.22.5c-.42,0-.63-.15-.63-.46a.51.51,0,0,1,.17-.39.6.6,0,0,1,.42-.15c.12,0,.2,0,.23.06a.69.69,0,0,1,.06.34c0,.14.07.21.2.21a1.52,1.52,0,0,0,.77-.45,6.78,6.78,0,0,0,1-1.05,2.77,2.77,0,0,0,.7-1.58v-4.73q0-1-.43-1t-1,1.08q-.17.39-.28.39t-.11-.13a2,2,0,0,1,.42-.91,1.79,1.79,0,0,1,1.48-.94q.63,0,.8.42a3.26,3.26,0,0,1,.13,1.08v.38l0,2.49c0,.34,0,.69,0,1l.22-.34q.14-.25.45-.76l.45-.69,1.2-2a15.08,15.08,0,0,1,.89-1.36A.65.65,0,0,1,101,548,.43.43,0,0,1,101.51,548.51Z"/><path class="cls-5" d="M106.86,550.32a3.88,3.88,0,0,1-1.5,3,3.68,3.68,0,0,1-2.45,1,1.86,1.86,0,0,1-1.43-.6,2.19,2.19,0,0,1-.56-1.55,3.49,3.49,0,0,1,.46-1.67,4.63,4.63,0,0,1,1.23-1.46,3.83,3.83,0,0,1,2.32-.94,1.75,1.75,0,0,1,1.39.62A2.38,2.38,0,0,1,106.86,550.32Zm-1.08-.91q0-1.06-1-1.06-1.16,0-2,1.67a6.64,6.64,0,0,0-.81,3q0,1.05.94,1,1.18,0,2-1.51A6.92,6.92,0,0,0,105.78,549.41Z"/><path class="cls-5" d="M114.1,548.23l0,.07-.1.23-1.57,3.69a5.54,5.54,0,0,0-.48,1.39q0,.38.36.38.52,0,1.15-.77c.1-.13.17-.19.21-.19a.08.08,0,0,1,.08.08q0,.34-.83.85a1.92,1.92,0,0,1-1,.3,1.18,1.18,0,0,1-.71-.23.65.65,0,0,1-.31-.52A1.77,1.77,0,0,1,111,553l.17-.48a8.71,8.71,0,0,1-1.42,1.42,2.06,2.06,0,0,1-1.18.33,1.68,1.68,0,0,1-.9-.22.65.65,0,0,1-.35-.57,2.89,2.89,0,0,1,.31-1.07l1.44-3.25.24-.49a.24.24,0,0,0,0-.1c0-.08-.11-.11-.34-.11s-.45-.05-.45-.15a.09.09,0,0,1,.1-.1l.32,0,.32,0a3.41,3.41,0,0,0,1.08-.13l.11,0s.07,0,.07.08a3.11,3.11,0,0,1-.28.71q-.28.6-.52,1.23-.06.16-.43,1l-.56,1.29a3.43,3.43,0,0,0-.35,1.14q0,.41.52.41t1.41-.9a8.1,8.1,0,0,0,1.62-2.55l.9-2.13c0-.11.1-.17.15-.17h.41a1.73,1.73,0,0,0,.49,0l.1,0S114.1,548.2,114.1,548.23Z"/><path class="cls-5" d="M125.4,544.22l0,.1-.15.32L122,552.37a4.43,4.43,0,0,0-.36,1.09q0,.39.45.39a1.36,1.36,0,0,0,1.15-.73c.1-.16.17-.23.21-.23s.1,0,.1.11-.16.38-.48.67a2,2,0,0,1-1.41.53q-1,0-1-.9v-.41a4,4,0,0,1-1,1,2,2,0,0,1-1.11.31,1.72,1.72,0,0,1-1.27-.5,1.75,1.75,0,0,1-.49-1.29,4.27,4.27,0,0,1,1.57-3.12A4.08,4.08,0,0,1,121,548a1.16,1.16,0,0,1,1.19.85l.08-.17.1-.21,1.6-3.86a.21.21,0,0,0,.06-.13.11.11,0,0,0-.08-.12l-.53,0c-.18,0-.27,0-.27-.08s.05-.07.15-.07h1.19a3.74,3.74,0,0,0,.69,0l.11,0A.07.07,0,0,1,125.4,544.22ZM122,549.15a.74.74,0,0,0-.29-.57,1,1,0,0,0-.66-.25q-1,0-2.11,1.73a5.54,5.54,0,0,0-1,2.76q0,1,.92,1t1.6-1.13a8.47,8.47,0,0,0,1-1.86l.32-.82A3.76,3.76,0,0,0,122,549.15Z"/><path class="cls-5" d="M129.86,550.32a3.88,3.88,0,0,1-1.5,3,3.68,3.68,0,0,1-2.45,1,1.86,1.86,0,0,1-1.43-.6,2.19,2.19,0,0,1-.56-1.55,3.49,3.49,0,0,1,.46-1.67,4.63,4.63,0,0,1,1.23-1.46,3.83,3.83,0,0,1,2.32-.94,1.75,1.75,0,0,1,1.39.62A2.38,2.38,0,0,1,129.86,550.32Zm-1.08-.91q0-1.06-1-1.06-1.16,0-2,1.67a6.64,6.64,0,0,0-.81,3q0,1.05.94,1,1.18,0,2-1.51A6.92,6.92,0,0,0,128.78,549.41Z"/><path class="cls-5" d="M136.32,548.15a.47.47,0,0,1-.07.17,7.47,7.47,0,0,0-.32.68l-1.61,3.67a3.59,3.59,0,0,0-.32.92c0,.25.13.38.39.38a1.31,1.31,0,0,0,.61-.19,1.48,1.48,0,0,0,.53-.45c.08-.11.15-.17.2-.17a.07.07,0,0,1,.08.08q0,.17-.39.5a2,2,0,0,1-1.33.5,1.25,1.25,0,0,1-.8-.25.79.79,0,0,1-.32-.64,3.27,3.27,0,0,1,.35-1.13l1.46-3.24a1.09,1.09,0,0,1,.17-.36.18.18,0,0,0,0-.1c0-.08-.21-.14-.62-.17-.08,0-.11-.05-.11-.1s0-.13.11-.13l.21,0a5,5,0,0,0,.63,0,2.41,2.41,0,0,0,.83-.1.64.64,0,0,1,.2-.06C136.28,548,136.32,548.07,136.32,548.15Zm1-2.62q0,.59-.55.59a.64.64,0,0,1-.46-.17.59.59,0,0,1-.18-.44q0-.57.64-.57T137.28,545.53Z"/><path class="cls-5" d="M141.41,549.13a.58.58,0,0,1-.15.41.48.48,0,0,1-.36.17.37.37,0,0,1-.42-.41q0-.34.28-.34l.13,0a.37.37,0,0,0,.15,0c.06,0,.08,0,.08-.1s-.11-.31-.32-.45a1.16,1.16,0,0,0-.66-.22,1.07,1.07,0,0,0-.76.29.91.91,0,0,0-.31.69,8.33,8.33,0,0,0,.66,1.94,2.24,2.24,0,0,1,.15.85,2.16,2.16,0,0,1-.64,1.59,2.19,2.19,0,0,1-1.61.64,2.13,2.13,0,0,1-1.41-.47,1.44,1.44,0,0,1-.57-1.15.91.91,0,0,1,.23-.64.76.76,0,0,1,.58-.25.63.63,0,0,1,.46.18.58.58,0,0,1,.19.43.37.37,0,0,1-.41.42q-.44,0-.43-.29a.58.58,0,0,1,0-.2l0-.11c0-.09,0-.14-.11-.14s-.16.06-.23.19a.83.83,0,0,0-.11.41,1.24,1.24,0,0,0,.46,1,1.57,1.57,0,0,0,1.08.41,1.38,1.38,0,0,0,1-.35,1.14,1.14,0,0,0,.39-.88,4.3,4.3,0,0,0-.3-1.23,4.21,4.21,0,0,1-.29-1.34,2.23,2.23,0,0,1,.55-1.53,1.74,1.74,0,0,1,1.35-.62,1.41,1.41,0,0,1,.92.32A1,1,0,0,1,141.41,549.13Z"/><path class="cls-5" d="M150.55,548.15a1.43,1.43,0,0,1-.11.29l-1.85,4.18a2.52,2.52,0,0,0-.27.92.32.32,0,0,0,.36.36,1.47,1.47,0,0,0,1.09-.74c.07-.1.13-.15.17-.15a0,0,0,0,1,.06.06q0,.16-.31.49a1.94,1.94,0,0,1-1.47.66,1.13,1.13,0,0,1-.71-.21.66.66,0,0,1-.27-.55,1.51,1.51,0,0,1,.1-.49,2.49,2.49,0,0,1-2,1.29,1.6,1.6,0,0,1-1.19-.47,1.63,1.63,0,0,1-.46-1.19,3.62,3.62,0,0,1,.53-1.75,6.7,6.7,0,0,1,1.41-1.73,3.51,3.51,0,0,1,2.21-1.06,1,1,0,0,1,1.18,1l.35-.74c.07-.15.14-.22.2-.22l.17,0,.2,0a1.38,1.38,0,0,0,.48-.07l.1,0C150.53,548.05,150.55,548.08,150.55,548.15Zm-1.76,1.16a1,1,0,0,0-.26-.7.89.89,0,0,0-.67-.26,1.77,1.77,0,0,0-1.34.82,8.7,8.7,0,0,0-1.19,2,4.7,4.7,0,0,0-.45,1.82q0,.95.78.95a1.5,1.5,0,0,0,1-.49,4,4,0,0,0,.88-1.23l1.09-2.34A1.6,1.6,0,0,0,148.79,549.31Z"/><path class="cls-5" d="M157.09,549.69a4.56,4.56,0,0,1-1.33,3.09,3.82,3.82,0,0,1-2.81,1.47,1.27,1.27,0,0,1-1.29-.87l-1.18,2.9a3.09,3.09,0,0,0-.15.43,3.82,3.82,0,0,1-.28.62c.68,0,1,.07,1,.14s-.12.11-.35.11l-.76,0-.42,0h-.25l-.6,0h-.56c-.2,0-.29,0-.29-.11s.13-.14.39-.15a1.42,1.42,0,0,0,.64-.13,2.06,2.06,0,0,0,.36-.66l3.14-7.53q.24-.57.24-.6c0-.08-.06-.11-.17-.11h-.36c-.17,0-.25,0-.25-.1s.06-.09.17-.09h.22a8.8,8.8,0,0,0,1.46-.07l.14,0a.07.07,0,0,1,.08.08,6.72,6.72,0,0,1-.39.94,5.77,5.77,0,0,1,1-.78,1.78,1.78,0,0,1,.85-.2,1.7,1.7,0,0,1,1.22.46A1.58,1.58,0,0,1,157.09,549.69Zm-1.19-.48q0-.83-.74-.83a2.07,2.07,0,0,0-1.48.87,7.5,7.5,0,0,0-1.16,2.11l-.46,1.15a1.68,1.68,0,0,0-.15.56.84.84,0,0,0,.28.63.94.94,0,0,0,.67.27q1.13,0,2.16-1.9A6.3,6.3,0,0,0,155.9,549.21Z"/><path class="cls-5" d="M163.88,549.69a4.56,4.56,0,0,1-1.33,3.09,3.82,3.82,0,0,1-2.81,1.47,1.27,1.27,0,0,1-1.29-.87l-1.18,2.9a3.09,3.09,0,0,0-.15.43,3.82,3.82,0,0,1-.28.62c.68,0,1,.07,1,.14s-.12.11-.35.11l-.76,0-.42,0h-.25l-.6,0h-.56c-.2,0-.29,0-.29-.11s.13-.14.39-.15a1.42,1.42,0,0,0,.64-.13,2.06,2.06,0,0,0,.36-.66l3.14-7.53q.24-.57.24-.6c0-.08-.06-.11-.17-.11h-.36c-.17,0-.25,0-.25-.1s.06-.09.17-.09H159a8.8,8.8,0,0,0,1.46-.07l.14,0a.07.07,0,0,1,.08.08,6.72,6.72,0,0,1-.39.94,5.77,5.77,0,0,1,1-.78,1.78,1.78,0,0,1,.85-.2,1.7,1.7,0,0,1,1.22.46A1.58,1.58,0,0,1,163.88,549.69Zm-1.19-.48q0-.83-.74-.83a2.07,2.07,0,0,0-1.48.87,7.5,7.5,0,0,0-1.16,2.11l-.46,1.15a1.68,1.68,0,0,0-.15.56.84.84,0,0,0,.28.63.94.94,0,0,0,.67.27q1.13,0,2.16-1.9A6.3,6.3,0,0,0,162.69,549.21Z"/><path class="cls-5" d="M169.61,548.71a.7.7,0,0,1-.18.48.55.55,0,0,1-.42.2c-.15,0-.22-.05-.22-.15l0-.14a.49.49,0,0,0,0-.15.3.3,0,0,0-.34-.34q-.41,0-1.13.78a8.3,8.3,0,0,0-1.37,2.2l-1,2.21c-.09.21-.17.32-.24.32a3.08,3.08,0,0,0-.43,0,1.34,1.34,0,0,0-.38,0h-.08c-.08,0-.13,0-.13-.06l0-.06.07-.14,2.37-5.39c0-.08-.06-.11-.18-.11h-.38c-.14,0-.21,0-.21-.1s.24-.09.73-.11a3.56,3.56,0,0,0,1-.13l.13,0a.07.07,0,0,1,.08.08,2.82,2.82,0,0,1-.18.52l-.52,1.26q1.29-1.79,2.27-1.79Q169.61,548.09,169.61,548.71Z"/><path class="cls-5" d="M174.46,549a1.44,1.44,0,0,1-.81,1.25,3.91,3.91,0,0,1-2.06.49,9.86,9.86,0,0,1-1-.06,4.62,4.62,0,0,0-.52,2q0,1.24,1.11,1.24a2.3,2.3,0,0,0,1.67-.88c.12-.13.2-.19.24-.19a.06.06,0,0,1,.07.07q0,.32-.66.79a2.66,2.66,0,0,1-1.57.54,2.15,2.15,0,0,1-1.5-.53,1.73,1.73,0,0,1-.59-1.34,4.09,4.09,0,0,1,1.71-3,4.36,4.36,0,0,1,2.67-1.29Q174.47,548.07,174.46,549Zm-1-.23a.38.38,0,0,0-.43-.43,1.43,1.43,0,0,0-.88.34,5.82,5.82,0,0,0-1.44,1.83h.38a2.79,2.79,0,0,0,1.53-.48A1.52,1.52,0,0,0,173.47,548.78Z"/><path class="cls-5" d="M179.59,549.1q0,.69-.57.69a.49.49,0,0,1-.35-.15.44.44,0,0,1-.15-.33q0-.34.38-.34H179l.17.06c.07,0,.11-.05.11-.15a.49.49,0,0,0-.27-.4,1.1,1.1,0,0,0-.61-.17q-1,0-2,1.54a5.6,5.6,0,0,0-1,2.95q0,1.17,1.06,1.17a2.22,2.22,0,0,0,1.61-1c.09-.11.17-.17.22-.17s.07,0,.07.08-.12.29-.36.53a2.49,2.49,0,0,1-1.79.79,2,2,0,0,1-1.46-.52,1.82,1.82,0,0,1-.55-1.39,4.35,4.35,0,0,1,1.57-3,3.8,3.8,0,0,1,2.66-1.27,1.22,1.22,0,0,1,.84.29A1,1,0,0,1,179.59,549.1Z"/><path class="cls-5" d="M182.54,548.15a.47.47,0,0,1-.07.17,7.47,7.47,0,0,0-.32.68l-1.61,3.67a3.59,3.59,0,0,0-.32.92c0,.25.13.38.39.38a1.31,1.31,0,0,0,.61-.19,1.48,1.48,0,0,0,.53-.45c.08-.11.15-.17.2-.17a.07.07,0,0,1,.08.08q0,.17-.39.5a2,2,0,0,1-1.33.5,1.25,1.25,0,0,1-.8-.25.79.79,0,0,1-.32-.64,3.27,3.27,0,0,1,.35-1.13L181,549a1.09,1.09,0,0,1,.17-.36.18.18,0,0,0,0-.1c0-.08-.21-.14-.62-.17-.08,0-.11-.05-.11-.1s0-.13.11-.13l.21,0a5,5,0,0,0,.63,0,2.41,2.41,0,0,0,.83-.1.64.64,0,0,1,.2-.06C182.51,548,182.54,548.07,182.54,548.15Zm1-2.62q0,.59-.55.59a.64.64,0,0,1-.46-.17.59.59,0,0,1-.18-.44q0-.57.64-.57T183.51,545.53Z"/><path class="cls-5" d="M189.33,548.15a1.43,1.43,0,0,1-.11.29l-1.85,4.18a2.52,2.52,0,0,0-.27.92.32.32,0,0,0,.36.36,1.47,1.47,0,0,0,1.09-.74c.07-.1.13-.15.17-.15a0,0,0,0,1,.06.06q0,.16-.31.49a1.94,1.94,0,0,1-1.47.66,1.13,1.13,0,0,1-.71-.21.66.66,0,0,1-.27-.55,1.51,1.51,0,0,1,.1-.49,2.49,2.49,0,0,1-2,1.29,1.6,1.6,0,0,1-1.19-.47,1.63,1.63,0,0,1-.46-1.19,3.62,3.62,0,0,1,.53-1.75,6.7,6.7,0,0,1,1.41-1.73,3.51,3.51,0,0,1,2.21-1.06,1,1,0,0,1,1.18,1l.35-.74c.07-.15.14-.22.2-.22l.17,0,.2,0a1.38,1.38,0,0,0,.48-.07l.1,0C189.31,548.05,189.33,548.08,189.33,548.15Zm-1.76,1.16a1,1,0,0,0-.26-.7.89.89,0,0,0-.67-.26,1.77,1.77,0,0,0-1.34.82,8.7,8.7,0,0,0-1.19,2,4.7,4.7,0,0,0-.45,1.82q0,.95.78.95a1.5,1.5,0,0,0,1-.49,4,4,0,0,0,.88-1.23l1.09-2.34A1.6,1.6,0,0,0,187.57,549.31Z"/><path class="cls-5" d="M193.87,548.22q0,.2-.59.21h-.78l-1.89,4.24a3.16,3.16,0,0,0-.31.87q0,.29.43.29a1.39,1.39,0,0,0,1.12-.66c.08-.09.13-.14.17-.14s.11,0,.11.1-.15.32-.46.59a1.88,1.88,0,0,1-1.27.46,1.27,1.27,0,0,1-.82-.25.79.79,0,0,1-.32-.64,2.82,2.82,0,0,1,.32-.94l1.83-3.92h-.57c-.16,0-.24,0-.24-.09s.07-.17.2-.17h.73l.24-.6c.08-.21.15-.31.2-.31l.22,0,.23,0a1.23,1.23,0,0,0,.45-.13l.1,0s.07,0,.07.05l-.15.33-.31.66h.87l.17,0,.11,0C193.82,548.11,193.87,548.15,193.87,548.22Z"/><path class="cls-5" d="M198.52,549a1.44,1.44,0,0,1-.81,1.25,3.91,3.91,0,0,1-2.06.49,9.86,9.86,0,0,1-1-.06,4.62,4.62,0,0,0-.52,2q0,1.24,1.11,1.24a2.3,2.3,0,0,0,1.67-.88c.12-.13.2-.19.24-.19a.06.06,0,0,1,.07.07q0,.32-.66.79a2.66,2.66,0,0,1-1.57.54,2.15,2.15,0,0,1-1.5-.53,1.73,1.73,0,0,1-.59-1.34,4.09,4.09,0,0,1,1.71-3,4.36,4.36,0,0,1,2.67-1.29Q198.52,548.07,198.52,549Zm-1-.23a.38.38,0,0,0-.43-.43,1.43,1.43,0,0,0-.88.34,5.82,5.82,0,0,0-1.44,1.83h.38a2.79,2.79,0,0,0,1.53-.48A1.52,1.52,0,0,0,197.52,548.78Z"/><path class="cls-5" d="M206.86,544.22l0,.1-.15.32-3.19,7.73a4.43,4.43,0,0,0-.36,1.09q0,.39.45.39a1.36,1.36,0,0,0,1.15-.73c.1-.16.17-.23.21-.23s.1,0,.1.11-.16.38-.48.67a2,2,0,0,1-1.41.53q-1,0-1-.9v-.41a4,4,0,0,1-1,1,2,2,0,0,1-1.11.31,1.72,1.72,0,0,1-1.27-.5,1.75,1.75,0,0,1-.49-1.29,4.27,4.27,0,0,1,1.57-3.12,4.08,4.08,0,0,1,2.7-1.33,1.16,1.16,0,0,1,1.19.85l.08-.17.1-.21,1.6-3.86a.21.21,0,0,0,.06-.13.11.11,0,0,0-.08-.12l-.53,0c-.18,0-.27,0-.27-.08s.05-.07.15-.07H206a3.74,3.74,0,0,0,.69,0l.11,0A.07.07,0,0,1,206.86,544.22Zm-3.37,4.94a.74.74,0,0,0-.29-.57,1,1,0,0,0-.66-.25q-1,0-2.11,1.73a5.54,5.54,0,0,0-1,2.76q0,1,.92,1t1.6-1.13a8.47,8.47,0,0,0,1-1.86l.32-.82A3.76,3.76,0,0,0,203.49,549.15Z"/><path class="cls-5" d="M206.69,553.4a.75.75,0,0,1-.78.78q-.69,0-.69-.66a.79.79,0,0,1,.81-.81Q206.69,552.71,206.69,553.4Z"/><path class="cls-6" d="M109.48,74.82a19,19,0,0,1-.5,4.12q-.5,2.24-1,2.24a.32.32,0,0,1-.36-.36,1.15,1.15,0,0,1,.07-.33,15,15,0,0,0,1-5.46A10,10,0,0,0,106,67.72,9.58,9.58,0,0,0,98.83,65a23.28,23.28,0,0,0-12.3,3.94q5.06,3.76,5.06,8.78,0,8.06-10.95,9.58,9,3.14,9,11.53,0,6.22-5.29,10.88A18.14,18.14,0,0,1,72,114.31a7.92,7.92,0,0,1-5.4-1.75,6,6,0,0,1-2-4.75q0-4.62,4.25-9.16t8.55-4.54a5.32,5.32,0,0,1,3.9,1.5,5.17,5.17,0,0,1,1.52,3.85,9.57,9.57,0,0,1-.87,3.5q-.87,2.1-1.41,2.1c-.27,0-.4-.1-.4-.29a1.11,1.11,0,0,1,.14-.43,9,9,0,0,0,1.88-5,4.37,4.37,0,0,0-1.33-3.32,4.88,4.88,0,0,0-3.5-1.26q-4.08,0-8,4.3t-3.89,8.78a5.34,5.34,0,0,0,1.62,4,5.54,5.54,0,0,0,4,1.59q5.52,0,10.12-5.37a17.73,17.73,0,0,0,4.6-11.8q0-6-5.78-8.82l-2.1.25a14,14,0,0,1-1.73.11q-2.75,0-2.75-.9,0-.65,2.28-.65a19.18,19.18,0,0,1,4.3.65,11.43,11.43,0,0,0,5.94-4,10.72,10.72,0,0,0,2.19-6.65,9.28,9.28,0,0,0-2.78-6.54q-7.91,6.07-14.89,20.6-4.3,8.93-7.88,12.94a32.56,32.56,0,0,1-9.86,7Q45.2,114,39.27,114a13.85,13.85,0,0,1-8.06-2.22A6.57,6.57,0,0,1,28,106.18,4.84,4.84,0,0,1,29.1,103a3.3,3.3,0,0,1,2.62-1.34q2.2,0,2.2,2.46a3.12,3.12,0,0,1-.74,2.1,2.31,2.31,0,0,1-1.82.87q-1.88,0-1.81-2c0-.53,0-.79-.14-.79q-.58,0-.58,1.92a5.86,5.86,0,0,0,2.94,5,13,13,0,0,0,7.43,2,20.81,20.81,0,0,0,14.34-5.85,37.2,37.2,0,0,0,4.84-5.29q2.06-2.76,9.43-14a94.56,94.56,0,0,1,8.6-10.95,53.32,53.32,0,0,1,8.42-7.91q-5.71-4.8-16.55-4.81a36.7,36.7,0,0,0-26.52,11q-9.25,9-9.25,17a8.3,8.3,0,0,0,2.6,6.43,10,10,0,0,0,7,2.38q7.26,0,15-7t7.75-13.55q0-5.24-5.38-5.24T48,81.45q-6.16,6-6.16,11.25a3.19,3.19,0,0,0,.87,2.24,2.68,2.68,0,0,0,2,.94q.61.11.61.29c0,.22-.23.33-.69.33a3.56,3.56,0,0,1-2.93-1.57,6.17,6.17,0,0,1-1.19-3.84q0-5.6,6.18-10.92T59.4,74.82q6.21,0,6.21,5.75,0,7-7.91,14.16t-15.61,7.15A10.38,10.38,0,0,1,31,90.79q0-10.22,11.54-18.66a42.28,42.28,0,0,1,25.53-8.44q10.51,0,17.85,4.73a24.22,24.22,0,0,1,12.79-4.12,10.64,10.64,0,0,1,7.79,2.89A10.21,10.21,0,0,1,109.48,74.82Z"/><path class="cls-6" d="M113.29,101.11a4.37,4.37,0,0,1-.65.94L111.09,104q-7.49,9.24-12.84,9.24A5.6,5.6,0,0,1,94,111.4a6.41,6.41,0,0,1-1.72-4.57q0-6.5,9.07-11.45,4.77-2.6,7.77-2.6a3.33,3.33,0,0,1,2.22.78,2.4,2.4,0,0,1,.92,1.9q0,2.6-3.4,4.43t-11.35,3.41q-2.46,3.72-2.46,6.21,0,3.11,3.36,3.11,5.71,0,14-11.15.43-.58.72-.58A.19.19,0,0,1,113.29,101.11Zm-3.05-6.7q0-1.16-1.26-1.16-1.92,0-5,2.66a37.21,37.21,0,0,0-6.12,6.88A28.2,28.2,0,0,0,106.62,99Q110.24,96.57,110.24,94.4Z"/><path class="cls-6" d="M138.69,101.07q0,.76-5.28,7-4.27,5.14-6.73,5.14A3.38,3.38,0,0,1,124,112a4.68,4.68,0,0,1-1-3.12,9.41,9.41,0,0,1,1.16-4.23,49.42,49.42,0,0,1-5.53,6.83,5.61,5.61,0,0,1-3.72,1.77,4,4,0,0,1-3.22-1.64,6.46,6.46,0,0,1-1.3-4.14q0-6.94,9.79-12.29,4.3-2.38,6.94-2.38a2,2,0,0,1,2.24,2.17,6.26,6.26,0,0,1-.29,1.63l1.84-3.5a8.53,8.53,0,0,0,1.92.25,16.4,16.4,0,0,0,2.53-.25l-6.4,10.59q-3.32,5.56-3.32,7.33t1.41,1.7q1.45,0,4.63-3.31a62.11,62.11,0,0,0,6.48-8.16c.14-.24.28-.36.4-.36A.19.19,0,0,1,138.69,101.07Zm-10-6q0-1.77-1.63-1.77-3.32,0-8.73,6.5T113,110.34q0,2.35,2.1,2.35,2.49,0,8.64-8.27Q128.74,97.62,128.74,95.09Z"/><path class="cls-6" d="M161.93,101.07q0,.83-5.25,7-4.34,5.14-6.87,5.14a3.43,3.43,0,0,1-2.7-1.28,4.58,4.58,0,0,1-1.1-3.09,9,9,0,0,1,1.41-3.94l-.72,1a55.41,55.41,0,0,1-4.88,5.71,4.84,4.84,0,0,1-3.22,1.63,3.4,3.4,0,0,1-2.67-1.25,4.49,4.49,0,0,1-1.08-3.05,9.64,9.64,0,0,1,1.63-4.81L143,93.07a10.14,10.14,0,0,0,1.92.25,20.58,20.58,0,0,0,2.46-.25l-8.6,14.16a7.7,7.7,0,0,0-1.3,3.83q0,1.63,1.37,1.63,3.65,0,11.71-13.62l3.54-6a8.78,8.78,0,0,0,1.88.25,18.3,18.3,0,0,0,2.57-.25l-5.78,9.43q-4.12,6.72-4.12,8.64,0,1.55,1.48,1.55,2.89,0,9.41-9.12L160.7,102l.65-.8c.12-.24.24-.36.36-.36A.19.19,0,0,1,161.93,101.07Z"/><path class="cls-6" d="M175.24,92.78l-.29.54h-4.73l-8.06,13.77a8.57,8.57,0,0,0-1.48,4q0,1.63,1.7,1.63,3.29,0,11.11-11.47c.17-.24.31-.36.43-.36a.19.19,0,0,1,.22.22,3.92,3.92,0,0,1-.36.58l-1.55,2.13q-6.8,9.44-10.24,9.44a3.72,3.72,0,0,1-2.84-1.23,4.34,4.34,0,0,1-1.14-3.07,11.38,11.38,0,0,1,1.92-5.42L166,93.32h-3.69l.36-.54h3.61l4.23-7a8,8,0,0,0,2.06.29,8.1,8.1,0,0,0,2.1-.29l-4.16,7Z"/><path class="cls-6" d="M186.5,101.07a3.92,3.92,0,0,1-.36.58l-1.55,2.13q-6.8,9.44-10.38,9.44a3.74,3.74,0,0,1-2.84-1.21,4.23,4.23,0,0,1-1.14-3q0-2.09,2.49-6.36l5.64-9.58a8.52,8.52,0,0,0,1.77.25,20.76,20.76,0,0,0,2.75-.25l-8.2,13.48a9.91,9.91,0,0,0-1.77,4.52q0,1.63,1.7,1.63,3.22,0,11.33-11.47c.12-.24.24-.36.36-.36A.19.19,0,0,1,186.5,101.07ZM186,86.13a3.36,3.36,0,0,1-1.07,2.37,3.2,3.2,0,0,1-2.33,1.1A1.44,1.44,0,0,1,180.95,88a3.23,3.23,0,0,1,1.12-2.29,3.34,3.34,0,0,1,2.35-1.1A1.37,1.37,0,0,1,186,86.13Z"/><path class="cls-6" d="M211,75.18q0,3.22-4.55,8.08a60.84,60.84,0,0,1-11.93,9.52h6.21l-.33.54h-6.29l-3,5.75a133.64,133.64,0,0,1-9.33,16.06,51.7,51.7,0,0,1-8.93,9.63q-7,5.78-13,5.78-2.67,0-2.67-.78c0-.24.13-.36.4-.36a1,1,0,0,1,.43.07,8.77,8.77,0,0,0,2.46.38q4.88,0,9.83-4.37a28.75,28.75,0,0,0,5.31-6.29q1.88-2.89,8.89-15.75l5.57-10.12h-3.87l.29-.54h3.94a70.51,70.51,0,0,1,10.23-13.57q5.6-5.73,8.64-5.73Q211,73.48,211,75.18Zm-.43-.07a1.05,1.05,0,0,0-1.19-1.19q-2.75,0-7.48,6.29a118.23,118.23,0,0,0-7.08,11.85,67.14,67.14,0,0,0,10.84-9.39Q210.61,77.39,210.61,75.11Z"/><path class="cls-6" d="M219.56,101.07q0,.83-5.25,7-4.34,5.14-6.87,5.14a3.43,3.43,0,0,1-2.7-1.28,4.58,4.58,0,0,1-1.1-3.09,9,9,0,0,1,1.41-3.94l-.72,1a55.49,55.49,0,0,1-4.88,5.71,4.85,4.85,0,0,1-3.22,1.63,3.4,3.4,0,0,1-2.67-1.25,4.49,4.49,0,0,1-1.08-3.05,9.64,9.64,0,0,1,1.63-4.81l6.58-11.06a10.14,10.14,0,0,0,1.92.25,20.58,20.58,0,0,0,2.46-.25l-8.6,14.16a7.7,7.7,0,0,0-1.3,3.83q0,1.63,1.37,1.63,3.65,0,11.71-13.62l3.54-6a8.78,8.78,0,0,0,1.88.25,18.3,18.3,0,0,0,2.57-.25l-5.78,9.43q-4.12,6.72-4.12,8.64,0,1.55,1.48,1.55,2.89,0,9.41-9.12l1.12-1.56.65-.8c.12-.24.24-.36.36-.36A.19.19,0,0,1,219.56,101.07Z"/><path class="cls-6" d="M238.51,75.47q-15.18,25.26-17.69,29.7t-2.51,5.89q0,1.63,1.38,1.63,3,0,11.14-11.47c.12-.24.26-.36.43-.36a.19.19,0,0,1,.14.22,1,1,0,0,1-.36.58l-1.56,2.13q-6.84,9.44-10.09,9.44a3.19,3.19,0,0,1-2.55-1.17,4.44,4.44,0,0,1-1-3,8.56,8.56,0,0,1,.92-3.85q.92-1.86,6.27-10.75,6.54-10.87,11-18.86a7.51,7.51,0,0,0,1.92.29A7.15,7.15,0,0,0,238.51,75.47Z"/><path class="cls-2" d="M79.14,121a1.85,1.85,0,0,0-.44.31,3,3,0,0,0-.39.46l-.4.6-.4.62-.53.81-.52.8-.4.6v2.41c0,.23,0,.46,0,.68a.91.91,0,0,0,.11.46.84.84,0,0,0,.47.35l.55.13v.12h-3.7v-.12a2.63,2.63,0,0,0,.55-.11,1.23,1.23,0,0,0,.5-.38.4.4,0,0,0,.09-.2,3.13,3.13,0,0,0,0-.32c0-.12,0-.25,0-.38s0-.27,0-.4,0-.49,0-.8,0-.68,0-1.12l-.14-.23-.29-.47-.38-.63-.41-.68-.38-.62-.3-.47-.41-.64a3.52,3.52,0,0,0-.38-.49,2.07,2.07,0,0,0-.38-.32.85.85,0,0,0-.43-.13v-.12h3.64v.12l-.36,0a1.74,1.74,0,0,0-.34.08.69.69,0,0,0-.25.14.32.32,0,0,0-.1.25,1.15,1.15,0,0,0,.17.47l.37.64.31.52.4.65.44.7.41.68.38-.58.46-.72.44-.7.32-.53.13-.22.14-.26a2.4,2.4,0,0,0,.11-.28.84.84,0,0,0,0-.26.44.44,0,0,0-.1-.3.64.64,0,0,0-.25-.17,1.56,1.56,0,0,0-.33-.09l-.35-.05v-.12h2.77v.12A1.86,1.86,0,0,0,79.14,121Z"/><path class="cls-2" d="M85,127.54a3.14,3.14,0,0,1-.61,1,2.75,2.75,0,0,1-.89.64,2.6,2.6,0,0,1-1.07.23,3.06,3.06,0,0,1-1-.17,2.75,2.75,0,0,1-1.63-1.47,3.1,3.1,0,0,1-.27-1.34,2.8,2.8,0,0,1,.21-1.07,2.85,2.85,0,0,1,2.68-1.79,2.79,2.79,0,0,1,2.53,1.6,2.86,2.86,0,0,1,.26,1.25A3,3,0,0,1,85,127.54Zm-1-2a3.2,3.2,0,0,0-.29-.86,1.92,1.92,0,0,0-.54-.65,1.32,1.32,0,0,0-.83-.26,1.13,1.13,0,0,0-.71.24,2.08,2.08,0,0,0-.53.63,3.3,3.3,0,0,0-.34.88,4.31,4.31,0,0,0-.11,1,5.45,5.45,0,0,0,.1,1,2.83,2.83,0,0,0,.31.87,1.74,1.74,0,0,0,.55.6,1.43,1.43,0,0,0,.8.22,1.14,1.14,0,0,0,.79-.28,2.13,2.13,0,0,0,.52-.71,3.79,3.79,0,0,0,.29-.92,5.13,5.13,0,0,0,.09-.91A4.7,4.7,0,0,0,84,125.5Z"/><path class="cls-2" d="M89.82,129.34h-.08v-1.21h0a4.35,4.35,0,0,1-.32.43A2.85,2.85,0,0,1,89,129a2,2,0,0,1-.53.29,1.81,1.81,0,0,1-.63.11,1.37,1.37,0,0,1-1.13-.46,2.09,2.09,0,0,1-.37-1.33v-3.06a1.36,1.36,0,0,0,0-.17c0-.06,0-.12,0-.17a.24.24,0,0,0,0-.11.31.31,0,0,0-.14-.16.79.79,0,0,0-.2-.07l-.23,0-.23,0v-.13H87.3v3.49a2.22,2.22,0,0,0,.24,1.17,1,1,0,0,0,.9.38,1.33,1.33,0,0,0,.44-.07,1.46,1.46,0,0,0,.34-.17,1.69,1.69,0,0,0,.28-.23,3.29,3.29,0,0,0,.24-.28v-3.42a2.49,2.49,0,0,0,0-.31.6.6,0,0,0-.1-.28,1.69,1.69,0,0,0-.39-.1l-.51-.06v-.13h2v4.74a.44.44,0,0,0,0,.14.27.27,0,0,0,.1.11l.32.16.35.16V129Z"/><path class="cls-2" d="M99.72,128.59a1.5,1.5,0,0,1-.25.39,1,1,0,0,1-.37.26,1.15,1.15,0,0,1-.46.09,1.18,1.18,0,0,1-.73-.24,1,1,0,0,1-.32-.84h0a3,3,0,0,1-.26.35,2.34,2.34,0,0,1-.38.36,2,2,0,0,1-.49.27,1.68,1.68,0,0,1-.59.1,1.47,1.47,0,0,1-.39-.05.93.93,0,0,1-.36-.19,1,1,0,0,1-.26-.35,1.24,1.24,0,0,1-.1-.53,1,1,0,0,1,.27-.65,3,3,0,0,1,.67-.56l.7-.43.53-.31.4-.22.29-.16v-1.24a.41.41,0,0,0,0-.11.64.64,0,0,0-.14-.19,1,1,0,0,0-.28-.17,1.19,1.19,0,0,0-.47-.08,1.12,1.12,0,0,0-.38.07,1.32,1.32,0,0,0-.33.17,1.12,1.12,0,0,0-.23.2.3.3,0,0,0-.08.17v.54a.37.37,0,0,1-.17.3.61.61,0,0,1-.38.13.45.45,0,0,1-.33-.14.44.44,0,0,1-.14-.32.5.5,0,0,1,.07-.26.91.91,0,0,1,.18-.22,1.35,1.35,0,0,1,.23-.17l.22-.13.64-.35c.22-.11.42-.21.62-.29a5.52,5.52,0,0,1,.54-.19,1.47,1.47,0,0,1,.4-.07,1.14,1.14,0,0,1,.59.16,1,1,0,0,1,.4.4.72.72,0,0,1,.06.29c0,.14,0,.28,0,.41,0,.29,0,.55,0,.78s0,.46,0,.67,0,.44,0,.67,0,.48,0,.75a1,1,0,0,0,.19.71.61.61,0,0,0,.43.17.61.61,0,0,0,.41-.11.57.57,0,0,0,.18-.29h.07A1.25,1.25,0,0,1,99.72,128.59Zm-2.12-2.53a5,5,0,0,1-.54.33,7.21,7.21,0,0,0-.63.38,2.81,2.81,0,0,0-.53.45.81.81,0,0,0-.22.56.84.84,0,0,0,.22.56.71.71,0,0,0,.56.25,1.93,1.93,0,0,0,.55-.07,1.06,1.06,0,0,0,.44-.28.44.44,0,0,0,.14-.34Z"/><path class="cls-2" d="M103.88,124.6a.47.47,0,0,1-.36.17.61.61,0,0,1-.31-.07,1,1,0,0,1-.2-.15,1.22,1.22,0,0,0-.18-.15.46.46,0,0,0-.26-.07.47.47,0,0,0-.28.1,1.33,1.33,0,0,0-.26.26,2,2,0,0,0-.22.35q-.1.2-.17.38v3.46a.29.29,0,0,0,.16.17,1,1,0,0,0,.27.08l.31,0,.28,0v.12H100v-.12a1.56,1.56,0,0,0,.47-.11.29.29,0,0,0,.2-.28v-4.06a.43.43,0,0,0,0-.14.27.27,0,0,0-.1-.11l-.25-.15a1.94,1.94,0,0,0-.29-.15v-.07l1.57-.61h.07l0,1.67h0l.19-.42a3.64,3.64,0,0,1,.34-.56,2.1,2.1,0,0,1,.49-.49,1.12,1.12,0,0,1,.66-.2.76.76,0,0,1,.51.18.58.58,0,0,1,.21.46A.63.63,0,0,1,103.88,124.6Z"/><path class="cls-2" d="M108.89,128.09a2.25,2.25,0,0,1-.46.61,2.4,2.4,0,0,1-.69.46,2.16,2.16,0,0,1-.89.18,2.67,2.67,0,0,1-1.12-.23,2.43,2.43,0,0,1-.86-.64,3,3,0,0,1-.55-1,3.61,3.61,0,0,1-.19-1.18,3,3,0,0,1,.69-1.9,2.58,2.58,0,0,1,.8-.64,2.24,2.24,0,0,1,1-.25,3.15,3.15,0,0,1,.88.12,2,2,0,0,1,.72.37,1.9,1.9,0,0,1,.5.62,2.24,2.24,0,0,1,.23.88h-3.85c0,.06,0,.14,0,.22s0,.17,0,.26a3.22,3.22,0,0,0,.14,1,2.54,2.54,0,0,0,.42.82,2,2,0,0,0,.7.56,2.2,2.2,0,0,0,1,.2,1.82,1.82,0,0,0,1-.31,1.44,1.44,0,0,0,.59-.75l.1,0A2.19,2.19,0,0,1,108.89,128.09Zm-1.37-4a1.09,1.09,0,0,0-.82-.32,1,1,0,0,0-.61.2,2.22,2.22,0,0,0-.47.46,2.36,2.36,0,0,0-.31.53,2.25,2.25,0,0,0-.13.41h2.2a1,1,0,0,0,.28-.06.89.89,0,0,0,.13-.18.59.59,0,0,0,0-.25A1.06,1.06,0,0,0,107.52,124Z"/><path class="cls-2" d="M117.67,127.57a2.84,2.84,0,0,1-.59.93,2.71,2.71,0,0,1-.89.62,2.82,2.82,0,0,1-1.13.22,4,4,0,0,1-1.25-.19,2.82,2.82,0,0,1-.95-.51h-.06l-.29.65h-.08v-7.48l-.3-.18-.4-.22v-.07l1.62-.73h.1l0,4.27h0a1.8,1.8,0,0,1,.32-.49,3,3,0,0,1,.5-.44,2.57,2.57,0,0,1,.62-.32,2,2,0,0,1,.67-.12,2,2,0,0,1,1,.24,2.3,2.3,0,0,1,.73.64,3,3,0,0,1,.45.92,3.77,3.77,0,0,1,.16,1.09A3.11,3.11,0,0,1,117.67,127.57Zm-1-1.85a2.22,2.22,0,0,0-.35-.73,1.74,1.74,0,0,0-.59-.51,1.78,1.78,0,0,0-.85-.19,1.56,1.56,0,0,0-.64.12,1.67,1.67,0,0,0-.44.28,1.32,1.32,0,0,0-.26.31.55.55,0,0,0-.09.23c0,.1,0,.24,0,.42v.91c0,.15,0,.3,0,.46a3.77,3.77,0,0,0,.11.79,2.26,2.26,0,0,0,.29.7,1.54,1.54,0,0,0,.51.49,1.44,1.44,0,0,0,.75.19,1.26,1.26,0,0,0,.69-.19,1.71,1.71,0,0,0,.53-.54,2.8,2.8,0,0,0,.34-.82,4.2,4.2,0,0,0,.12-1A3.28,3.28,0,0,0,116.66,125.72Z"/><path class="cls-2" d="M123.09,128.09a2.25,2.25,0,0,1-.46.61,2.4,2.4,0,0,1-.69.46,2.16,2.16,0,0,1-.89.18,2.67,2.67,0,0,1-1.12-.23,2.43,2.43,0,0,1-.86-.64,3,3,0,0,1-.55-1,3.61,3.61,0,0,1-.19-1.18,3,3,0,0,1,.69-1.9,2.58,2.58,0,0,1,.8-.64,2.24,2.24,0,0,1,1-.25,3.15,3.15,0,0,1,.88.12,2,2,0,0,1,.72.37,1.9,1.9,0,0,1,.5.62,2.24,2.24,0,0,1,.23.88h-3.85c0,.06,0,.14,0,.22s0,.17,0,.26a3.22,3.22,0,0,0,.14,1,2.54,2.54,0,0,0,.42.82,2,2,0,0,0,.7.56,2.2,2.2,0,0,0,1,.2,1.82,1.82,0,0,0,1-.31,1.44,1.44,0,0,0,.59-.75l.1,0A2.19,2.19,0,0,1,123.09,128.09Zm-1.37-4a1.09,1.09,0,0,0-.82-.32,1,1,0,0,0-.61.2,2.22,2.22,0,0,0-.47.46,2.36,2.36,0,0,0-.31.53,2.25,2.25,0,0,0-.13.41h2.2a1,1,0,0,0,.28-.06.89.89,0,0,0,.13-.18.59.59,0,0,0,0-.25A1.06,1.06,0,0,0,121.71,124Z"/><path class="cls-2" d="M128.8,128.59a1.5,1.5,0,0,1-.25.39,1,1,0,0,1-.37.26,1.15,1.15,0,0,1-.46.09,1.18,1.18,0,0,1-.73-.24,1,1,0,0,1-.32-.84h0a3,3,0,0,1-.26.35,2.34,2.34,0,0,1-.38.36,2,2,0,0,1-.49.27,1.68,1.68,0,0,1-.59.1,1.47,1.47,0,0,1-.39-.05.93.93,0,0,1-.36-.19,1,1,0,0,1-.26-.35,1.24,1.24,0,0,1-.1-.53,1,1,0,0,1,.27-.65,3,3,0,0,1,.67-.56l.7-.43.53-.31.4-.22.29-.16v-1.24a.41.41,0,0,0,0-.11.64.64,0,0,0-.14-.19,1,1,0,0,0-.28-.17,1.19,1.19,0,0,0-.47-.08,1.12,1.12,0,0,0-.38.07,1.32,1.32,0,0,0-.33.17,1.12,1.12,0,0,0-.23.2.3.3,0,0,0-.08.17v.54a.37.37,0,0,1-.17.3.61.61,0,0,1-.38.13.45.45,0,0,1-.33-.14.44.44,0,0,1-.14-.32.5.5,0,0,1,.07-.26.91.91,0,0,1,.18-.22,1.35,1.35,0,0,1,.23-.17l.22-.13.64-.35c.22-.11.42-.21.62-.29a5.52,5.52,0,0,1,.54-.19,1.47,1.47,0,0,1,.4-.07,1.14,1.14,0,0,1,.59.16,1,1,0,0,1,.4.4.72.72,0,0,1,.06.29c0,.14,0,.28,0,.41,0,.29,0,.55,0,.78s0,.46,0,.67,0,.44,0,.67,0,.48,0,.75a1,1,0,0,0,.19.71.61.61,0,0,0,.43.17.61.61,0,0,0,.41-.11.57.57,0,0,0,.18-.29h.07A1.25,1.25,0,0,1,128.8,128.59Zm-2.12-2.53a5,5,0,0,1-.54.33,7.21,7.21,0,0,0-.63.38,2.81,2.81,0,0,0-.53.45.81.81,0,0,0-.22.56.84.84,0,0,0,.22.56.71.71,0,0,0,.56.25,1.93,1.93,0,0,0,.55-.07,1.06,1.06,0,0,0,.44-.28.44.44,0,0,0,.14-.34Z"/><path class="cls-2" d="M133.07,129.34H133v-1.21h0a4.35,4.35,0,0,1-.32.43,2.85,2.85,0,0,1-.43.41,2,2,0,0,1-.53.29,1.81,1.81,0,0,1-.63.11,1.37,1.37,0,0,1-1.13-.46,2.09,2.09,0,0,1-.37-1.33v-3.06a1.36,1.36,0,0,0,0-.17c0-.06,0-.12,0-.17a.24.24,0,0,0,0-.11.31.31,0,0,0-.14-.16.79.79,0,0,0-.2-.07l-.23,0-.23,0v-.13h1.85v3.49a2.22,2.22,0,0,0,.24,1.17,1,1,0,0,0,.9.38,1.33,1.33,0,0,0,.44-.07,1.46,1.46,0,0,0,.34-.17,1.69,1.69,0,0,0,.28-.23,3.29,3.29,0,0,0,.24-.28v-3.42a2.49,2.49,0,0,0,0-.31.6.6,0,0,0-.1-.28,1.69,1.69,0,0,0-.39-.1l-.51-.06v-.13h2v4.74a.44.44,0,0,0,0,.14.27.27,0,0,0,.1.11l.32.16.35.16V129Z"/><path class="cls-2" d="M138.81,124.38H137v3.16a1.25,1.25,0,0,0,.26.89.9.9,0,0,0,.68.28,1.28,1.28,0,0,0,.58-.11,1.06,1.06,0,0,0,.4-.35l.07,0a2.29,2.29,0,0,1-.2.38,1.41,1.41,0,0,1-.34.36,1.58,1.58,0,0,1-.49.25,2.18,2.18,0,0,1-.67.09,1.51,1.51,0,0,1-.48-.08,1.23,1.23,0,0,1-.41-.23,1.36,1.36,0,0,1-.29-.34.72.72,0,0,1-.11-.38q0-1.13,0-2.14t0-1.81h-.88v-.13l1.73-1.64H137v1h2.22Z"/><path class="cls-2" d="M139.08,129.32v-.12l.29,0a1.13,1.13,0,0,0,.26-.06.58.58,0,0,0,.19-.11.23.23,0,0,0,.08-.18V124.7a.71.71,0,0,0,0-.17.24.24,0,0,0-.1-.13l-.26-.14-.32-.13v-.07l1.62-.53h.07v5.36a.26.26,0,0,0,.1.17.53.53,0,0,0,.19.08l.23,0,.25,0v.12Zm1.72-7.23a.65.65,0,0,1-1.11-.46.61.61,0,0,1,.19-.46.68.68,0,0,1,.92,0,.61.61,0,0,1,.19.46A.62.62,0,0,1,140.8,122.09Z"/><path class="cls-2" d="M146.32,121.62a.44.44,0,0,1-.37.18.58.58,0,0,1-.37-.11,1.68,1.68,0,0,1-.28-.26l-.24-.29a.56.56,0,0,0-.26-.19l-.2,0a.72.72,0,0,0-.27.15.92.92,0,0,0-.24.34,1.7,1.7,0,0,0-.13.59q0,.48,0,.82t0,.77h1.42l-.16.53h-1.27v4.68a.26.26,0,0,0,.12.17.81.81,0,0,0,.24.1l.32,0,.35,0v.12h-3v-.12l.31,0,.34-.07a1,1,0,0,0,.27-.11.19.19,0,0,0,.11-.16v-4.64h-.86l.13-.53h.74q0-.5,0-1a2,2,0,0,1,.16-.75,1.8,1.8,0,0,1,.37-.51,2.64,2.64,0,0,1,.55-.41,3,3,0,0,1,.67-.28,2.81,2.81,0,0,1,.75-.1,1.71,1.71,0,0,1,.35,0,1.19,1.19,0,0,1,.31.11.7.7,0,0,1,.23.19.44.44,0,0,1,.09.28A.64.64,0,0,1,146.32,121.62Z"/><path class="cls-2" d="M149.52,129.34h-.08v-1.21h0a4.42,4.42,0,0,1-.32.43,2.85,2.85,0,0,1-.43.41,2,2,0,0,1-.53.29,1.81,1.81,0,0,1-.63.11,1.37,1.37,0,0,1-1.13-.46,2.09,2.09,0,0,1-.37-1.33v-3.06a1.36,1.36,0,0,0,0-.17c0-.06,0-.12,0-.17a.25.25,0,0,0,0-.11.31.31,0,0,0-.14-.16.79.79,0,0,0-.2-.07l-.23,0-.23,0v-.13H147v3.49a2.22,2.22,0,0,0,.24,1.17,1,1,0,0,0,.9.38,1.33,1.33,0,0,0,.44-.07,1.46,1.46,0,0,0,.34-.17,1.71,1.71,0,0,0,.28-.23l.24-.28v-3.42a2.6,2.6,0,0,0,0-.31.6.6,0,0,0-.1-.28,1.7,1.7,0,0,0-.39-.1l-.51-.06v-.13h2v4.74a.44.44,0,0,0,0,.14.27.27,0,0,0,.1.11l.32.16.35.16V129Z"/><path class="cls-2" d="M151.52,129.32v-.13a2.65,2.65,0,0,0,.73-.11.27.27,0,0,0,.18-.27v-6.9a.41.41,0,0,0,0-.14.27.27,0,0,0-.1-.11l-.32-.19a3,3,0,0,0-.36-.19v-.07l1.72-.56h.08v8.22a.26.26,0,0,0,.05.18.3.3,0,0,0,.16.08l.28,0,.4,0v.13Z"/><path class="cls-2" d="M155.08,128.77a.67.67,0,1,1,1.34,0,.67.67,0,1,1-1.34,0Z"/><line class="cls-7" x1="261" y1="0.13" x2="261" y2="6.13"/><line class="cls-7" x1="270" y1="9.13" x2="264" y2="9.13"/><line class="cls-7" x1="9" y1="0.13" x2="9" y2="6.13"/><line class="cls-7" x1="6" y1="9.13" y2="9.13"/><line class="cls-7" x1="270" y1="153.13" x2="264" y2="153.13"/><line class="cls-7" x1="6" y1="153.13" y2="153.13"/><line class="cls-7" x1="270" y1="153.13" x2="264" y2="153.13"/><line class="cls-7" x1="6" y1="153.13" y2="153.13"/><line class="cls-7" x1="270" y1="297.13" x2="264" y2="297.13"/><line class="cls-7" x1="6" y1="297.13" y2="297.13"/><line class="cls-7" x1="270" y1="297.13" x2="264" y2="297.13"/><line class="cls-7" x1="6" y1="297.13" y2="297.13"/><line class="cls-7" x1="270" y1="441.13" x2="264" y2="441.13"/><line class="cls-7" x1="6" y1="441.13" y2="441.13"/><line class="cls-7" x1="270" y1="441.13" x2="264" y2="441.13"/><line class="cls-7" x1="6" y1="441.13" y2="441.13"/><line class="cls-7" x1="261" y1="588.13" x2="261" y2="594.13"/><line class="cls-7" x1="270" y1="585.13" x2="264" y2="585.13"/><line class="cls-7" x1="9" y1="588.13" x2="9" y2="594.13"/><line class="cls-7" x1="6" y1="585.13" y2="585.13"/></svg>