<svg xmlns="http://www.w3.org/2000/svg" viewBox="0 0 190.36 216"><defs><style>.cls-1{isolation:isolate;}.cls-2,.cls-3{fill:none;stroke:#0072bc;stroke-miterlimit:10;stroke-width:0.25px;}.cls-2{opacity:0.79;}.cls-3{opacity:0.5;mix-blend-mode:lighten;}</style></defs><title>Artboard 1</title><g class="cls-1"><g id="Layer_1" data-name="Layer 1"><path class="cls-2" d="M108.71,33.17a17,17,0,1,0-26.95,0,89,89,0,1,0,26.95,0Zm66,72.52-7.31-3.7,6.17-1.36C174,102.3,174.42,104,174.75,105.7ZM160.37,73a80.86,80.86,0,0,1,9.94,17.74l-25.74,5.67,3.34-2.59-5.41-7ZM153,105.16l-4.89,5.24c-.27-1.34-.6-2.65-1-3.95ZM133.73,49.87a81.27,81.27,0,0,1,19.74,15L131.91,81.57l-.7-.64Zm-24.82-8.54A80.39,80.39,0,0,1,126,46.22L103.55,67.79l-.94-.13Zm14.39,20.59-.46,6-3.9-1.85ZM95.24,13.85a9,9,0,1,1-9,9A9,9,0,0,1,95.24,13.85ZM92.08,40.23c1,0,2.1-.08,3.16-.08s2.23,0,3.34.08L96.24,50Zm.29,27c-1.28.07-2.54.19-3.79.35L90,61.69Zm-8-26.33L81.89,51.19,78,42Q81.12,41.33,84.35,40.9ZM68,44.86,78.6,69.79a53.94,53.94,0,0,0-17.24,9.36c.05-.41.11-.82.12-1.23a13,13,0,0,0-1.23-6.11A17.65,17.65,0,0,0,56,66.2a17.65,17.65,0,0,0-6-3.72,13,13,0,0,0-6.2-.64,16,16,0,0,0-6,2.26A81,81,0,0,1,68,44.86ZM51.73,78.62a8.25,8.25,0,0,1-2.48,5.27l-10.2-9.26a8.32,8.32,0,0,1,5-3,6.45,6.45,0,0,1,5.16,2A6.52,6.52,0,0,1,51.73,78.62ZM27,77.5,47.44,96.06c-.26.49-.52,1-.76,1.49l-27-5.66A80.69,80.69,0,0,1,27,77.5Zm16,29.78a53.55,53.55,0,0,0-1.18,5.59l-7.76-1.63,1.17-5.59ZM16.6,101.73l9.62,2L25,109.34l-9.6-2C15.76,105.44,16.15,103.57,16.6,101.73Zm42.55,77.11L47.4,186.5a80.87,80.87,0,0,1-33.16-65.35c0-1.21,0-2.41.09-3.61l27,5.66A53.94,53.94,0,0,0,62.47,164l-3.3,5.91a3.22,3.22,0,0,0,.57.26l.58.24.64.33q3.44,1.92,1.87,4.73A6.38,6.38,0,0,1,61.68,177,18.38,18.38,0,0,1,59.15,178.84Zm19-4.7q-4,3.8-5.11,11.89t1.64,12.83c.16.28.34.53.52.78A80.35,80.35,0,0,1,63,195.46l4.39-4.06-5.28-2.95,1.13-.74,4-2.69q1.72-1.16,3-2.16a18.14,18.14,0,0,0,2.12-2,11.54,11.54,0,0,0,1.5-2.1,9.31,9.31,0,0,0,1.33-4.64,9,9,0,0,0-.57-3.1,53.56,53.56,0,0,0,5.15,1.84A11.6,11.6,0,0,0,78.1,174.14Zm10.72,14.11q-1,7.46-4.09,7t-2-7.89q1-7.46,4.09-7T88.82,188.25Zm6.42,13.91c-.83,0-1.65,0-2.48-.06.23-.19.47-.38.69-.59q4-3.8,5.11-11.89a26.08,26.08,0,0,0,0-8.07l3.87,3.14,3.08,16.8A81.64,81.64,0,0,1,95.24,202.15Zm.51-27q2.63,0,5.2-.29l-2.9,4.48a13,13,0,0,0-1.13-2.55A11.63,11.63,0,0,0,95.75,175.14Zm20,24.4-4.9-26.68c.66-.2,1.31-.42,2-.64l.83,7.41,7.75-4.14,2.46,21.46A80.32,80.32,0,0,1,115.72,199.54ZM95.24,167.15a46,46,0,1,1,46-46A46.05,46.05,0,0,1,95.24,167.15Zm38.2,25.43L130,162.47a53.91,53.91,0,0,0,19.18-38.21l12.79-13.58,14.21,6.69c.06,1.26.1,2.52.1,3.79A81,81,0,0,1,133.44,192.59Z"/><path class="cls-3" d="M51.88,70.71q-4-3.68-8.37-3t-8.42,5.16l-1.9,2.1L49.5,89.75l1.9-2.1q4.1-4.51,4.31-8.89T51.88,70.71Z"/><polygon class="cls-3" points="126.56 72.5 128.21 51.55 113.03 66.07 126.56 72.5"/><path class="cls-3" d="M90.79,178.17a6.21,6.21,0,0,0-7.2-1A8.25,8.25,0,0,0,81,179.73a13.53,13.53,0,0,0-1.59,3.53,22.93,22.93,0,0,0-1,7.18,13.53,13.53,0,0,0,.55,3.83,8.22,8.22,0,0,0,1.76,3.18,6.21,6.21,0,0,0,7.2,1,8.11,8.11,0,0,0,2.59-2.57,13.52,13.52,0,0,0,1.59-3.53,23,23,0,0,0,1-7.18,13.54,13.54,0,0,0-.55-3.83A8.13,8.13,0,0,0,90.79,178.17Z"/><polygon class="cls-3" points="127.81 193.87 124.93 169.12 116.67 173.53 116.51 172.31 126 167.25 128.99 193.24 127.81 193.87"/><path class="cls-3" d="M88.23,199.7a7.81,7.81,0,0,1-8.08-1.13A8.33,8.33,0,0,1,78,195.26,14.06,14.06,0,0,1,77.2,191a23.82,23.82,0,0,1,1.22-8.7,14.07,14.07,0,0,1,1.92-3.83,8.33,8.33,0,0,1,3-2.59,7.8,7.8,0,0,1,8.08,1.13,8.34,8.34,0,0,1,2.15,3.31,14.11,14.11,0,0,1,.79,4.21,23.86,23.86,0,0,1-1.22,8.7,14.12,14.12,0,0,1-1.92,3.83A8.34,8.34,0,0,1,88.23,199.7Z"/><path class="cls-3" d="M68.55,172.3A6.68,6.68,0,0,0,65.38,169l-.24-.11-.2-.08-.13-.07.56-1,.13.07.2.08.24.11a8.16,8.16,0,0,1,3.79,4,5.78,5.78,0,0,1-.56,5.19,9.73,9.73,0,0,1-2,2.54,25.65,25.65,0,0,1-2.83,2.16l-9.74,6.32L61.43,192l-.94.79-8.21-4.59,11.29-7.33a21.8,21.8,0,0,0,2.71-2.09,9,9,0,0,0,1.79-2.22A4.84,4.84,0,0,0,68.55,172.3Z"/><polygon class="cls-3" points="105.19 175.4 106.51 175.15 110.9 199.09 109.68 199.31 105.58 176.98 103.12 180.61 102.26 179.93 105.19 175.4"/><polygon class="cls-3" points="17.28 111.98 28.08 114.25 30.98 100.44 20.18 98.17 20.43 96.95 44.25 101.94 43.99 103.17 32.11 100.67 29.21 114.48 41.1 116.98 40.84 118.2 17.02 113.2 17.28 111.98"/><path class="cls-3" d="M53.69,86.71c-.22.26-.42.53-.63.79s-.52.62-.8.93l-2.74,3-18-16.37,2.74-3q4.71-5.19,9.46-5.7t9,3.39q4.3,3.91,4.26,8.7C57,81.11,55.87,83.87,53.69,86.71Z"/><polygon class="cls-3" points="74.19 44.47 83.31 65.91 88.45 43.27 97.28 64.73 102.7 42.08 103.99 41.97 98.04 66.89 96.84 66.99 88.8 47.48 84.12 68.06 82.92 68.16 72.9 44.58 74.19 44.47"/><polygon class="cls-3" points="127.46 76.86 126.25 76.28 126.45 73.72 112.14 66.93 110.29 68.7 109.08 68.13 127.89 50.12 129.53 50.9 127.46 76.86"/><path class="cls-3" d="M135.31,85l19.24-14.9.76,1L137,85.29l6.58,8.5-.91.71-2.38-3.07a54.35,54.35,0,0,0-5-6.41Z"/><polygon class="cls-3" points="149.16 115.65 159.66 104.39 152.54 100.85 146.21 102.24 145.94 101.02 169.71 95.79 169.98 97.01 154.41 100.44 172.75 109.62 173.08 111.12 160.83 105.02 149.48 117.1 149.16 115.65"/></g></g></svg>