<?xml version="1.0" encoding="utf-8"?>
<!-- Generator: Adobe Illustrator 24.2.3, SVG Export Plug-In . SVG Version: 6.00 Build 0)  -->
<svg version="1.1" xmlns="http://www.w3.org/2000/svg" xmlns:xlink="http://www.w3.org/1999/xlink" x="0px" y="0px"
	 viewBox="0 0 190.36 216" style="enable-background:new 0 0 190.36 216;" xml:space="preserve">
<style type="text/css">
	.st0{stroke:#FFFFFF;stroke-width:0.288;stroke-miterlimit:10;}
	.st1{display:none;opacity:0.5;fill:#0071BB;stroke:#FFFFFF;stroke-width:0.288;stroke-miterlimit:10;}
	.st2{opacity:0.5;fill:none;stroke:#00FF00;stroke-width:0.288;stroke-miterlimit:10;}
	.st3{opacity:0.79;fill:none;stroke:#FF0000;stroke-width:0.216;stroke-miterlimit:10;}
</style>
<g id="raster_etch">
	<polygon class="st0" points="127.81,193.87 124.93,169.12 116.67,173.53 116.51,172.31 126,167.25 128.99,193.24 	"/>
	<path class="st0" d="M92.57,181.36c0.36,1.21,0.55,2.49,0.55,3.83c0.01,1.34-0.07,2.55-0.22,3.63c-0.15,1.08-0.41,2.26-0.79,3.55
		c-0.38,1.29-0.9,2.47-1.59,3.53c-0.68,1.07-1.55,1.92-2.59,2.57c-1.04,0.65-2.3,0.87-3.75,0.66c-1.49-0.21-2.64-0.77-3.45-1.67
		c-0.81-0.9-1.4-1.96-1.76-3.18c-0.36-1.21-0.55-2.49-0.55-3.83c-0.01-1.34,0.07-2.55,0.22-3.63c0.15-1.08,0.41-2.26,0.79-3.55
		s0.9-2.47,1.59-3.53c0.68-1.07,1.54-1.92,2.57-2.57c1.03-0.65,2.29-0.87,3.78-0.66c1.46,0.2,2.6,0.76,3.43,1.67
		C91.62,179.08,92.21,180.14,92.57,181.36z M91.21,197.11c0.8-1.12,1.44-2.39,1.92-3.83c0.48-1.44,0.81-2.87,1.01-4.29
		c0.2-1.43,0.27-2.89,0.21-4.41c-0.06-1.51-0.33-2.91-0.79-4.21c-0.47-1.29-1.18-2.4-2.15-3.31c-0.97-0.91-2.26-1.48-3.88-1.71
		c-1.62-0.23-3.02-0.04-4.2,0.57c-1.18,0.61-2.18,1.47-2.98,2.59c-0.8,1.12-1.44,2.39-1.92,3.83c-0.48,1.44-0.81,2.87-1.01,4.29
		s-0.27,2.89-0.21,4.41c0.06,1.51,0.33,2.91,0.79,4.21c0.46,1.29,1.18,2.4,2.15,3.31c0.97,0.91,2.26,1.48,3.88,1.71
		c1.62,0.23,3.02,0.04,4.2-0.57C89.41,199.09,90.41,198.23,91.21,197.11z"/>
	<path class="st0" d="M68.55,172.3c-0.52-1.33-1.57-2.45-3.17-3.34c-0.08-0.05-0.17-0.08-0.24-0.11c-0.08-0.03-0.15-0.05-0.2-0.08
		l-0.13-0.07l0.56-1.01l0.13,0.07c0.06,0.03,0.12,0.06,0.2,0.08c0.08,0.02,0.16,0.06,0.24,0.11c1.87,1.04,3.14,2.38,3.79,3.99
		c0.66,1.61,0.47,3.34-0.56,5.19c-0.53,0.95-1.21,1.8-2.05,2.54c-0.84,0.74-1.78,1.46-2.83,2.16l-9.74,6.32l6.87,3.84l-0.94,0.79
		l-8.21-4.59l11.29-7.33c1.05-0.7,1.95-1.39,2.71-2.09c0.75-0.7,1.35-1.44,1.79-2.22C68.9,175.05,69.07,173.63,68.55,172.3z"/>
	<polygon class="st0" points="105.19,175.39 106.51,175.15 110.9,199.09 109.68,199.31 105.58,176.98 103.12,180.61 102.26,179.93 	
		"/>
	<polygon class="st0" points="17.28,111.98 28.08,114.25 30.98,100.44 20.18,98.17 20.43,96.95 44.25,101.95 43.99,103.17 
		32.11,100.67 29.21,114.48 41.1,116.98 40.84,118.2 17.02,113.2 	"/>
	<polygon class="st0" points="74.19,44.47 83.31,65.91 88.45,43.27 97.28,64.74 102.7,42.07 103.99,41.97 98.04,66.89 96.84,66.99 
		88.8,47.48 84.12,68.06 82.92,68.16 72.9,44.58 	"/>
	<path class="st0" d="M113.03,66.07l15.19-14.52l-1.66,20.95L113.03,66.07z M129.53,50.9l-1.65-0.78l-18.81,18.01l1.21,0.58
		l1.85-1.78l14.31,6.79l-0.21,2.56l1.21,0.58L129.53,50.9z"/>
	<path class="st0" d="M135.31,85l19.24-14.9l0.76,0.99l-18.33,14.2l6.58,8.5l-0.91,0.71l-2.38-3.07
		C138.79,89.16,137.13,87.02,135.31,85L135.31,85z"/>
	<polygon class="st0" points="149.16,115.65 159.66,104.39 152.54,100.85 146.21,102.24 145.94,101.02 169.71,95.79 169.98,97.01 
		154.41,100.44 172.75,109.62 173.08,111.12 160.83,105.02 149.48,117.1 	"/>
	<path class="st0" d="M53.69,86.71c-0.22,0.26-0.42,0.53-0.63,0.79c-0.26,0.31-0.52,0.62-0.8,0.93l-2.74,3.02L31.5,75.09l2.74-3.02
		c3.14-3.46,6.3-5.36,9.46-5.7c3.17-0.34,6.18,0.79,9.05,3.39c2.87,2.6,4.28,5.5,4.26,8.7C56.98,81.11,55.87,83.87,53.69,86.71z
		 M51.88,70.71c-2.7-2.45-5.49-3.46-8.37-3.03c-2.88,0.43-5.69,2.15-8.42,5.16l-1.9,2.1L49.5,89.75l1.9-2.1
		c2.73-3.01,4.17-5.97,4.31-8.89C55.86,75.85,54.58,73.17,51.88,70.71z"/>
	<polygon class="st0" points="127.81,193.87 124.93,169.12 116.67,173.53 116.51,172.31 126,167.25 128.99,193.24 	"/>
	<path class="st0" d="M68.55,172.3c-0.52-1.33-1.57-2.45-3.17-3.34c-0.08-0.05-0.17-0.08-0.24-0.11c-0.08-0.03-0.15-0.05-0.2-0.08
		l-0.13-0.07l0.56-1.01l0.13,0.07c0.06,0.03,0.12,0.06,0.2,0.08c0.08,0.02,0.16,0.06,0.24,0.11c1.87,1.04,3.14,2.38,3.79,3.99
		c0.66,1.61,0.47,3.34-0.56,5.19c-0.53,0.95-1.21,1.8-2.05,2.54c-0.84,0.74-1.78,1.46-2.83,2.16l-9.74,6.32l6.87,3.84l-0.94,0.79
		l-8.21-4.59l11.29-7.33c1.05-0.7,1.95-1.39,2.71-2.09c0.75-0.7,1.35-1.44,1.79-2.22C68.9,175.05,69.07,173.63,68.55,172.3z"/>
	<polygon class="st0" points="105.19,175.39 106.51,175.15 110.9,199.09 109.68,199.31 105.58,176.98 103.12,180.61 102.26,179.93 	
		"/>
	<polygon class="st0" points="17.28,111.98 28.08,114.25 30.98,100.44 20.18,98.17 20.43,96.95 44.25,101.95 43.99,103.17 
		32.11,100.67 29.21,114.48 41.1,116.98 40.84,118.2 17.02,113.2 	"/>
	<polygon class="st0" points="74.19,44.47 83.31,65.91 88.45,43.27 97.28,64.74 102.7,42.07 103.99,41.97 98.04,66.89 96.84,66.99 
		88.8,47.48 84.12,68.06 82.92,68.16 72.9,44.58 	"/>
	<polygon class="st1" points="127.46,76.86 126.25,76.28 126.45,73.72 112.14,66.93 110.29,68.7 109.08,68.13 127.88,50.12 
		129.53,50.9 	"/>
	<path class="st0" d="M135.31,85l19.24-14.9l0.76,0.99l-18.33,14.2l6.58,8.5l-0.91,0.71l-2.38-3.07
		C138.79,89.16,137.13,87.02,135.31,85L135.31,85z"/>
	<polygon class="st0" points="149.16,115.65 159.66,104.39 152.54,100.85 146.21,102.24 145.94,101.02 169.71,95.79 169.98,97.01 
		154.41,100.44 172.75,109.62 173.08,111.12 160.83,105.02 149.48,117.1 	"/>
</g>
<g id="vector_etch">
	<polygon class="st2" points="126.56,72.5 128.21,51.55 113.03,66.07 	"/>
	<path class="st2" d="M90.79,178.17c-0.83-0.91-1.97-1.46-3.43-1.67c-1.49-0.21-2.75,0.01-3.78,0.66c-1.03,0.65-1.88,1.5-2.57,2.57
		c-0.68,1.07-1.21,2.25-1.59,3.53s-0.64,2.47-0.79,3.55c-0.15,1.08-0.22,2.29-0.22,3.63c0.01,1.34,0.19,2.62,0.55,3.83
		c0.36,1.21,0.95,2.27,1.76,3.18c0.81,0.91,1.96,1.46,3.45,1.67c1.46,0.21,2.71-0.01,3.75-0.66c1.04-0.64,1.91-1.5,2.59-2.57
		c0.68-1.07,1.21-2.25,1.59-3.53c0.37-1.29,0.64-2.47,0.79-3.55c0.15-1.08,0.22-2.29,0.22-3.63c-0.01-1.34-0.19-2.62-0.55-3.83
		C92.21,180.14,91.62,179.08,90.79,178.17z"/>
	<polygon class="st2" points="127.81,193.87 124.93,169.12 116.67,173.53 116.51,172.31 126,167.25 128.99,193.24 	"/>
	<path class="st2" d="M88.23,199.7c-1.18,0.61-2.58,0.8-4.2,0.57c-1.62-0.23-2.91-0.8-3.88-1.71c-0.97-0.91-1.69-2.01-2.15-3.31
		c-0.47-1.29-0.73-2.7-0.79-4.21c-0.06-1.51,0.01-2.98,0.21-4.41s0.54-2.86,1.01-4.29c0.48-1.44,1.12-2.71,1.92-3.83
		c0.8-1.12,1.8-1.98,2.98-2.59c1.18-0.61,2.58-0.8,4.2-0.57c1.62,0.23,2.91,0.8,3.88,1.71c0.97,0.91,1.69,2.01,2.15,3.31
		c0.46,1.29,0.73,2.7,0.79,4.21c0.06,1.51-0.01,2.98-0.21,4.41c-0.2,1.43-0.54,2.86-1.01,4.29c-0.48,1.44-1.12,2.71-1.92,3.83
		C90.41,198.23,89.41,199.09,88.23,199.7z"/>
	<path class="st2" d="M68.55,172.3c-0.52-1.33-1.57-2.45-3.17-3.34c-0.08-0.05-0.17-0.08-0.24-0.11c-0.08-0.03-0.15-0.05-0.2-0.08
		l-0.13-0.07l0.56-1.01l0.13,0.07c0.06,0.03,0.12,0.06,0.2,0.08c0.08,0.02,0.16,0.06,0.24,0.11c1.87,1.04,3.14,2.38,3.79,3.99
		c0.66,1.61,0.47,3.34-0.56,5.19c-0.53,0.95-1.21,1.8-2.05,2.54c-0.84,0.74-1.78,1.46-2.83,2.16l-9.74,6.32l6.87,3.84l-0.94,0.79
		l-8.21-4.59l11.29-7.33c1.05-0.7,1.95-1.39,2.71-2.09c0.75-0.7,1.35-1.44,1.79-2.22C68.9,175.05,69.07,173.63,68.55,172.3z"/>
	<polygon class="st2" points="105.19,175.39 106.51,175.15 110.9,199.09 109.68,199.31 105.58,176.98 103.12,180.61 102.26,179.93 	
		"/>
	<polygon class="st2" points="17.28,111.98 28.08,114.25 30.98,100.44 20.18,98.17 20.43,96.95 44.25,101.95 43.99,103.17 
		32.11,100.67 29.21,114.48 41.1,116.98 40.84,118.2 17.02,113.2 	"/>
	<path class="st2" d="M53.69,86.71c-0.22,0.26-0.42,0.53-0.63,0.79c-0.26,0.31-0.52,0.62-0.8,0.93l-2.74,3.02L31.5,75.09l2.74-3.02
		c3.14-3.46,6.3-5.36,9.46-5.7c3.17-0.34,6.18,0.79,9.05,3.39c2.87,2.6,4.28,5.5,4.26,8.7C56.98,81.11,55.87,83.87,53.69,86.71z"/>
	<polygon class="st2" points="74.19,44.47 83.31,65.91 88.45,43.27 97.28,64.74 102.7,42.07 103.99,41.97 98.04,66.89 96.84,66.99 
		88.8,47.48 84.12,68.06 82.92,68.16 72.9,44.58 	"/>
	<polygon class="st2" points="127.46,76.86 126.25,76.28 126.45,73.72 112.14,66.93 110.29,68.7 109.08,68.13 127.88,50.12 
		129.53,50.9 	"/>
	<path class="st2" d="M135.31,85l19.24-14.9l0.76,0.99l-18.33,14.2l6.58,8.5l-0.91,0.71l-2.38-3.07
		C138.79,89.16,137.13,87.02,135.31,85L135.31,85z"/>
	<polygon class="st2" points="149.16,115.65 159.66,104.39 152.54,100.85 146.21,102.24 145.94,101.02 169.71,95.79 169.98,97.01 
		154.41,100.44 172.75,109.62 173.08,111.12 160.83,105.02 149.48,117.1 	"/>
	<path class="st2" d="M51.88,70.71c-2.7-2.45-5.49-3.46-8.37-3.03c-2.88,0.43-5.69,2.15-8.42,5.16l-1.9,2.1L49.5,89.75l1.9-2.1
		c2.73-3.01,4.17-5.97,4.31-8.89C55.86,75.85,54.58,73.17,51.88,70.71z"/>
</g>
<g id="vector_cut">
	<path class="st3" d="M108.71,33.17c2.2-2.87,3.53-6.44,3.53-10.33c0-9.37-7.63-17-17-17s-17,7.63-17,17
		c0,3.89,1.32,7.46,3.53,10.33c-42.7,6.51-75.53,43.49-75.53,87.98c0,49.07,39.93,89,89,89c49.07,0,89-39.93,89-89
		C184.24,76.66,151.42,39.69,108.71,33.17z"/>
	<circle class="st3" cx="95.24" cy="22.85" r="9"/>
	<path class="st3" d="M160.37,73.01c4.02,5.43,7.37,11.39,9.94,17.74l-25.74,5.67l3.34-2.59l-5.41-6.98L160.37,73.01z"/>
	<path class="st3" d="M108.91,41.33c5.95,1.01,11.68,2.67,17.11,4.9l-22.47,21.57c-0.31-0.05-0.63-0.08-0.94-0.13L108.91,41.33z"/>
	<path class="st3" d="M92.08,40.23c1.05-0.04,2.1-0.08,3.16-0.08c1.12,0,2.23,0.04,3.34,0.08l-2.34,9.75L92.08,40.23z"/>
	<path class="st3" d="M84.35,40.9l-2.47,10.29l-3.91-9.18C80.07,41.56,82.2,41.19,84.35,40.9z"/>
	<path class="st3" d="M67.99,44.86L78.6,69.79c-6.34,2.06-12.16,5.26-17.24,9.36c0.05-0.41,0.11-0.82,0.12-1.23
		c0.09-2.1-0.32-4.14-1.23-6.11c-0.91-1.97-2.34-3.84-4.28-5.61c-1.94-1.76-3.94-3-5.99-3.72s-4.12-0.93-6.2-0.64
		c-2.02,0.28-4.03,1.04-6.05,2.26C46.18,55.61,56.48,48.98,67.99,44.86z"/>
	<path class="st3" d="M51.73,78.62c-0.04,1.74-0.87,3.49-2.48,5.27l-10.2-9.26c1.61-1.78,3.28-2.77,4.99-2.99s3.43,0.46,5.16,2.03
		C50.93,75.23,51.77,76.89,51.73,78.62z"/>
	<path class="st3" d="M43.05,107.29c-0.49,1.83-0.89,3.69-1.18,5.59l-7.76-1.63l1.17-5.59L43.05,107.29z"/>
	<path class="st3" d="M16.6,101.73l9.62,2.02l-1.17,5.59l-9.6-2.02C15.76,105.44,16.15,103.57,16.6,101.73z"/>
	<path class="st3" d="M59.15,178.84L47.4,186.5c-20.1-14.74-33.16-38.52-33.16-65.35c0-1.21,0.04-2.41,0.09-3.61l26.96,5.66
		c0.62,16.62,8.79,31.35,21.18,40.84l-3.3,5.91c0.22,0.12,0.41,0.21,0.57,0.26c0.18,0.07,0.38,0.15,0.58,0.24
		c0.2,0.1,0.42,0.21,0.64,0.33c2.29,1.28,2.91,2.86,1.87,4.73c-0.28,0.5-0.66,0.99-1.14,1.45C61.2,177.42,60.36,178.05,59.15,178.84
		z"/>
	<path class="st3" d="M78.1,174.14c-2.65,2.54-4.35,6.5-5.11,11.89c-0.76,5.39-0.21,9.66,1.64,12.83c0.16,0.28,0.34,0.53,0.52,0.78
		c-4.2-1.07-8.26-2.48-12.17-4.18l4.39-4.06l-5.28-2.95l1.13-0.74c1.52-1.02,2.86-1.91,4-2.69c1.15-0.77,2.13-1.49,2.97-2.16
		c0.83-0.67,1.54-1.33,2.12-1.98c0.58-0.65,1.08-1.35,1.5-2.1c0.9-1.62,1.35-3.17,1.33-4.64c-0.01-1.1-0.21-2.13-0.57-3.1
		c1.68,0.7,3.39,1.31,5.15,1.84C79.15,173.24,78.61,173.65,78.1,174.14z"/>
	<path class="st3" d="M88.82,188.25c-0.7,4.98-2.06,7.32-4.09,7.04c-2.03-0.29-2.69-2.92-1.99-7.89c0.7-4.97,2.06-7.32,4.09-7.04
		C88.85,180.64,89.52,183.27,88.82,188.25z"/>
	<path class="st3" d="M95.75,175.14c1.76-0.02,3.49-0.11,5.2-0.29l-2.9,4.48c-0.3-0.92-0.67-1.77-1.13-2.55
		C96.57,176.18,96.17,175.65,95.75,175.14z"/>
	<path class="st3" d="M115.72,199.54l-4.9-26.68c0.66-0.2,1.31-0.42,1.96-0.64l0.83,7.41l7.75-4.14l2.46,21.46
		C121.19,197.94,118.48,198.82,115.72,199.54z"/>
	<path class="st3" d="M133.44,192.59l-3.48-30.12c11.04-9.29,18.31-22.9,19.18-38.21l12.79-13.58l14.21,6.69
		c0.06,1.26,0.1,2.52,0.1,3.79C176.24,152.07,158.91,178.94,133.44,192.59z"/>
	<path class="st3" d="M133.73,49.87c7.34,3.97,13.98,9.06,19.74,15.01l-21.55,16.69c-0.23-0.21-0.46-0.43-0.7-0.64L133.73,49.87z"/>
	<polygon class="st3" points="123.29,61.91 122.84,67.91 118.93,66.06 	"/>
	<path class="st3" d="M92.36,67.23c-1.28,0.07-2.54,0.19-3.79,0.35l1.42-5.89L92.36,67.23z"/>
	<path class="st3" d="M27.02,77.5l20.42,18.56c-0.26,0.49-0.52,0.99-0.76,1.49l-26.97-5.66C21.67,86.83,24.13,82.02,27.02,77.5z"/>
	<path class="st3" d="M95.24,202.15c-0.83,0-1.65-0.04-2.48-0.06c0.23-0.19,0.47-0.38,0.69-0.59c2.65-2.54,4.35-6.5,5.11-11.89
		c0.43-3.05,0.42-5.73,0.02-8.07l3.87,3.14l3.08,16.8C102.16,201.91,98.73,202.15,95.24,202.15z"/>
	<path class="st3" d="M174.75,105.7l-7.31-3.7l6.17-1.36C174.04,102.3,174.42,103.99,174.75,105.7z"/>
	<path class="st3" d="M153.05,105.16l-4.89,5.24c-0.27-1.34-0.6-2.65-0.97-3.95L153.05,105.16z"/>
	<circle class="st3" cx="95.24" cy="121.15" r="46"/>
</g>
</svg>
