<?xml version="1.0" encoding="utf-8"?>
<!-- Generator: Adobe Illustrator 24.2.3, SVG Export Plug-In . SVG Version: 6.00 Build 0)  -->
<svg version="1.1" xmlns="http://www.w3.org/2000/svg" xmlns:xlink="http://www.w3.org/1999/xlink" x="0px" y="0px"
	 viewBox="0 0 103 274" style="enable-background:new 0 0 103 274;" xml:space="preserve">
<style type="text/css">
	.st0{fill:none;stroke:#00FF00;stroke-width:0.27;stroke-miterlimit:10;}
	.st1{fill:none;stroke:#FF0000;stroke-width:0.27;stroke-miterlimit:10;}
</style>
<g id="vector_etch">
	<path id="path9" class="st0" d="M27.4,209.4c0.82-0.21,1.62-0.47,2.4-0.8c1.33-0.52,2.64-1.12,3.9-1.8c1-0.6,1.9-1,2.5-1.3
		c1.3-0.5,2.3,0.1,3,1.8l2.4,6 M52.3,212.5c0.38-0.21,0.78-0.38,1.2-0.5c1.28-0.54,2.62-0.91,4-1.1"/>
	<path id="path11" class="st0" d="M50.3,24.3c-0.6,0.1-1.2,0.1-1.8,0.2c-0.86,0.08-1.73,0.12-2.6,0.1c-1.1,0-2.2,0-3.3-0.1
		s-2.4-0.1-3.6-0.2s-2.2-0.2-3.1-0.2"/>
	<path id="path13" class="st0" d="M42.1,155.8c4.09,0.9,8.36,0.26,12-1.8l-1.2,2.9c-0.7,1.6-0.3,2.7,1.1,3.3
		c0.81,0.31,1.65,0.55,2.5,0.7c1.1,0.3,2,0.5,2.5,0.7c0.3,0.1,0.7,0.4,1.2,0.6"/>
	<path id="path15" class="st0" d="M63.2,77.2c-1.42-2.53-3.86-4.31-6.7-4.9c-3.3-0.5-7.6,0.4-12.9,2.6c-1.6,0.7-3,1.4-4.3,2.1"/>
	<path id="path17" class="st0" d="M37.8,110.8c1.2,3.04,3.7,5.38,6.8,6.4c2.98,0.9,6.18,0.79,9.1-0.3"/>
</g>
<g id="vector_cut">
	<path id="path5" class="st1" d="M43.2,13.9c2.37,0,4.3,1.93,4.3,4.3s-1.93,4.3-4.3,4.3s-4.3-1.93-4.3-4.3l0,0
		c-0.02-2.36,1.88-4.28,4.24-4.3C43.16,13.9,43.18,13.9,43.2,13.9z M51.7,99.5c1.98-1.43,3.88-2.97,5.7-4.6l0.7,1.6
		c1.9,4.5,0.7,7.7-3.7,9.5c-2.6,1.1-4.4,0.6-5.4-1.7C48.4,102.9,49.3,101.3,51.7,99.5z M41.2,165.6c2.06-2,5.34-2,7.4,0
		c1,1.01,1.54,2.38,1.5,3.8c0.02,1.39-0.52,2.72-1.5,3.7c-2.06,2-5.34,2-7.4,0c-1-1.01-1.54-2.38-1.5-3.8
		C39.66,167.91,40.21,166.57,41.2,165.6z M38.5,195.6c1.59,0.18,3.2,0.28,4.8,0.3h2.2c1.3-0.1,2-0.1,2.2-0.1c4.1,0,6.2,1.1,6.2,3.4
		c0,2.8-3.2,4.2-9.5,4.2S35,202,35,199.2C34.9,197.7,36.1,196.5,38.5,195.6z M48.5,215c-1.57,1.71-2.86,3.67-3.8,5.8l-3-7.5h1.8
		c2.96,0.03,5.91-0.27,8.8-0.9C50.91,213.06,49.62,213.94,48.5,215z"/>
	<path id="path7" class="st1" d="M85.6,237.8c-1-2.5-2.6-3.3-4.8-2.5c-0.4,0.13-0.77,0.34-1.1,0.6c-0.32,0.22-0.65,0.42-1,0.6
		c-1,0.4-2-0.6-3-3.1l-5.1-12.7c-1.7-4.2-3.6-7-5.6-8.4c-2.23-1.42-4.9-1.95-7.5-1.5c1-0.47,1.97-1.01,2.9-1.6
		c3.91-2.36,6.27-6.63,6.2-11.2c0.15-3.37-1.39-6.59-4.1-8.6c-2.8-2-6.7-3-11.8-3l-5.1,0.1h-0.9c-3,0-5-0.1-5.8-0.2
		c-2.6-0.4-3.8-1.5-3.8-3.4c0.08-0.84,0.51-1.61,1.2-2.1l0.4,0.2c2.69,1.15,5.58,1.76,8.5,1.8c5.2,0,9.3-1.2,12.5-3.8
		c3.09-2.33,4.84-6.03,4.7-9.9c0.1-2.5-0.64-4.97-2.1-7c0.4,0.2,0.8,0.5,1.3,0.8c0.78,0.55,1.62,1.02,2.5,1.4
		c2.9,1.2,5.1,0.2,6.5-3.2c1.1-2.5,0.6-4.3-1.5-5.2c-0.41-0.2-0.85-0.33-1.3-0.4c-0.38-0.02-0.76-0.12-1.1-0.3
		c-0.3-0.13-0.52-0.39-0.6-0.7c-0.1-0.46-0.1-0.94,0-1.4c0.17-0.75,0.4-1.49,0.7-2.2l9.5-22.3c0.67-1.8,0.27-3-1.2-3.6
		c-0.81-0.32-1.65-0.59-2.5-0.8c-2-0.6-3.1-0.9-3.3-1c-0.6-0.3-1.6-0.8-2.8-1.5c-0.92-0.62-1.89-1.16-2.9-1.6
		c-2.7-1.2-4.8-0.1-6.3,3.3c-1.1,2.6-0.7,4.3,1.1,5c0.39,0.12,0.79,0.22,1.2,0.3s0.81,0.18,1.2,0.3c1.1,0.5,1.2,2,0.1,4.5l-2.9,6.8
		c-2.6,6.1-6.1,8.2-10.5,6.4c-2.9-1.2-3.6-3.8-2.1-7.7l8.1-19.6c0.45-0.83,0.59-1.78,0.4-2.7c0.5-0.2,0.9-0.3,1.4-0.5
		c4.57-1.84,8.21-5.45,10.1-10c2.7,2.7,6.1,3.1,10.1,1.4c2-0.77,3.71-2.13,4.9-3.9c1-1.44,1.19-3.29,0.5-4.9
		c-0.47-1.07-1.33-1.93-2.4-2.4c-1.09-0.45-2.31-0.45-3.4,0c-0.18,0.08-0.35,0.18-0.5,0.3c-0.34,0.23-0.71,0.39-1.1,0.5
		c-0.8,0.3-1.5-0.3-2.2-1.9l-6.5-15.2c-0.46-1.12-1.03-2.19-1.7-3.2c0.9,0,1.8,0.1,2.7,0.1c1.7,0.1,3.2,0.2,4.5,0.2s2.4,0.1,3.3,0.1
		c3.5,0,5.2-1.5,5.2-4.4c0-0.37-0.04-0.74-0.1-1.1c-0.1-0.6-0.1-1.4-0.2-2.5c-0.08-0.53-0.12-1.06-0.1-1.6v-1.6
		c-0.01-0.57,0.02-1.14,0.1-1.7c0.1-0.7,0.1-1.5,0.2-2.4c0.11-0.8,0.17-1.6,0.2-2.4c0.08-0.6,0.11-1.2,0.1-1.8
		c0-4.2-2.1-6.3-6.4-6.3c-1.75-0.04-3.46,0.57-4.8,1.7c-1.26,1.07-1.96,2.65-1.9,4.3c0.02,1.04,0.16,2.08,0.4,3.1
		c0.19,0.85,0.29,1.73,0.3,2.6c0,2.7-2.2,4-6.5,4h-5.5c-0.5,0-0.9-0.1-1.2-0.1c-1.32-0.13-2.41-1.1-2.7-2.4
		c-0.22-1.29-0.29-2.6-0.2-3.9V38.6c0-2.9,0.9-4.4,2.6-4.4c0.84,0.03,1.68,0.13,2.5,0.3s1.66,0.27,2.5,0.3c1.18,0.01,2.3-0.55,3-1.5
		c0.82-1.09,1.24-2.43,1.2-3.8c0.11-1.57-0.48-3.1-1.6-4.2c-1.12-1.08-2.64-1.66-4.2-1.6c-1.1,0-3,0.2-5.5,0.5
		c-0.24-0.02-0.48,0.02-0.7,0.1c1.44-1.66,2.23-3.8,2.2-6c0-5.14-4.16-9.3-9.3-9.3s-9.3,4.16-9.3,9.3c-0.03,2.08,0.68,4.1,2,5.7
		c-1.26-0.13-2.53-0.2-3.8-0.2c-3.9,0-5.9,1.9-5.9,5.8c-0.03,1.36,0.39,2.7,1.2,3.8c0.73,0.97,1.88,1.53,3.1,1.5
		c0.68-0.03,1.35-0.13,2-0.3c0.62-0.18,1.26-0.28,1.9-0.3c1.4,0,2.2,1.8,2.2,5.3v22.1c0,3.6-0.7,5.4-2.2,5.4
		c-0.64-0.03-1.28-0.13-1.9-0.3c-0.62-0.18-1.26-0.28-1.9-0.3c-1.24-0.01-2.42,0.54-3.2,1.5c-0.84,1.08-1.26,2.43-1.2,3.8
		c-0.07,1.56,0.51,3.08,1.6,4.2c1.03,1.11,2.48,1.73,4,1.7c0.8,0.02,1.6-0.02,2.4-0.1c0.8-0.1,1.7-0.2,2.7-0.3l2.5-0.3
		c-2.42,1.27-4.56,3-6.3,5.1c-2.1,2.7-2.7,5.4-1.5,8c0.64,1.73,2.04,3.06,3.8,3.6c1.84,0.6,3.83,0.49,5.6-0.3
		c1.56-0.61,2.87-1.74,3.7-3.2c0.74-1.28,0.85-2.83,0.3-4.2l-0.1-0.3c-0.21-0.31-0.37-0.65-0.5-1c-0.4-1,0.2-1.9,1.8-2.6
		c1.25-0.57,2.66-0.71,4-0.4c1.18,0.26,2.15,1.08,2.6,2.2c0.68,1.39,0.53,3.06-0.4,4.3c-0.9,1.3-3,3-6.2,5
		c-2.07,1.33-4.04,2.8-5.9,4.4c-3.8,3.4-4.6,7.7-2.4,12.8c0,0.1,0.1,0.2,0.1,0.3c-1.26,0.68-2.19,1.83-2.6,3.2
		c-1.1,2.7-0.6,4.5,1.6,5.4c0.26,0.1,0.53,0.17,0.8,0.2l0.7,0.3c0.43,0.13,0.77,0.47,0.9,0.9c0.1,0.4-0.2,1.4-0.9,3.2l-4.8,11.4
		c-1.9,4.4-2.8,7.6-2.6,9.6c0.14,2.07,0.94,4.03,2.3,5.6c1.47,1.8,3.36,3.2,5.5,4.1c1.12,0.5,2.29,0.87,3.5,1.1
		c-3.56,0.23-6.97,1.52-9.8,3.7c-3.02,2.18-4.81,5.68-4.8,9.4c0.03,2.62,1.07,5.13,2.9,7c-1.91,0.73-3.62,1.89-5,3.4
		c-0.99,1.43-1.49,3.16-1.4,4.9c0,4,2.1,6.4,6.4,7.3c-5.4,1.6-8.1,4.6-8.1,8.9c0,3.7,1.7,6.7,5.1,9c-0.2,0-0.3,0.1-0.5,0.1
		c-1.3,0.4-2.3,0.7-2.9,0.9c-1.26,0.46-2.24,1.44-2.7,2.7c-0.48,1.34-0.41,2.81,0.2,4.1c1.1,2.7,2.8,3.6,5.2,2.6
		c0.4-0.13,0.77-0.34,1.1-0.6c0.36-0.32,0.76-0.59,1.2-0.8c0.8-0.3,1.8,0.9,2.9,3.6l10,24.6c1.1,2.8,1.3,4.3,0.4,4.7
		c-0.42,0.14-0.86,0.21-1.3,0.2s-0.88,0.06-1.3,0.2c-2.4,1-3.1,2.9-1.9,5.7c0.5,1.3,1.46,2.36,2.7,3c1.19,0.58,2.58,0.62,3.8,0.1
		c0.5-0.2,1.7-0.9,3.6-1.9c1.1-0.6,2.2-1.1,3.2-1.6c1.4-0.56,2.84-1.02,4.3-1.4c1.6-0.4,2.7-0.8,3.3-1c2.7-1.1,3.4-3.3,2.1-6.5
		c-0.9-2.2-2.2-3.1-3.8-2.8c-0.67,0.28-1.41,0.31-2.1,0.1c-0.51-0.5-0.89-1.12-1.1-1.8l-3.5-8.7c-2.4-5.9-1.4-9.7,2.8-11.4
		c3.1-1.3,5.5,0.2,7.1,4.3l4.6,11.3c0.31,0.66,0.48,1.37,0.5,2.1c0,0.5-0.5,0.9-1.3,1.3c-1.8,0.9-2.2,2.6-1.2,5.1
		c0.47,1.23,1.35,2.26,2.5,2.9c1.11,0.5,2.39,0.5,3.5,0c1.16-0.5,2.3-1.07,3.4-1.7s2.24-1.2,3.4-1.7c0.8-0.3,2.1-0.7,3.8-1.2
		s3-0.9,3.8-1.2C86.2,243.5,87,241.2,85.6,237.8z"/>
</g>
</svg>
