<svg id="Layer_1" data-name="Layer 1" xmlns="http://www.w3.org/2000/svg" viewBox="0 0 103 274"><defs><style>.cls-1{fill:none;stroke:#ff8700;stroke-miterlimit:10;stroke-width:0.27px;}</style></defs><title>Artboard 1</title><g id="g3"><path id="path5" class="cls-1" d="M43.2,13.9a4.3,4.3,0,1,1-4.3,4.3A4.27,4.27,0,0,1,43.2,13.9Zm8.5,85.6a68.21,68.21,0,0,0,5.7-4.6l.7,1.6c1.9,4.5.7,7.7-3.7,9.5-2.6,1.1-4.4.6-5.4-1.7Q48.1,102.2,51.7,99.5ZM41.2,165.6a5.31,5.31,0,0,1,7.4,0,5.2,5.2,0,0,1,1.5,3.8,5.14,5.14,0,0,1-1.5,3.7,5.31,5.31,0,0,1-7.4,0,5.2,5.2,0,0,1-1.5-3.8A5,5,0,0,1,41.2,165.6Zm-2.7,30a47.14,47.14,0,0,0,4.8.3h2.2c1.3-.1,2-.1,2.2-.1,4.1,0,6.2,1.1,6.2,3.4,0,2.8-3.2,4.2-9.5,4.2S35,202,35,199.2C34.9,197.7,36.1,196.5,38.5,195.6Zm10,19.4a21.41,21.41,0,0,0-3.8,5.8l-3-7.5h1.8a39.05,39.05,0,0,0,8.8-.9A14.77,14.77,0,0,0,48.5,215Z"/><path id="path7" class="cls-1" d="M85.6,237.8c-1-2.5-2.6-3.3-4.8-2.5a3.58,3.58,0,0,0-1.1.6,8.8,8.8,0,0,1-1,.6c-1,.4-2-.6-3-3.1l-5.1-12.7c-1.7-4.2-3.6-7-5.6-8.4a10.6,10.6,0,0,0-7.5-1.5,26.94,26.94,0,0,0,2.9-1.6A12.84,12.84,0,0,0,66.6,198a10.14,10.14,0,0,0-4.1-8.6c-2.8-2-6.7-3-11.8-3l-5.1.1h-.9c-3,0-5-.1-5.8-.2-2.6-.4-3.8-1.5-3.8-3.4a2.9,2.9,0,0,1,1.2-2.1l.4.2a22.4,22.4,0,0,0,8.5,1.8c5.2,0,9.3-1.2,12.5-3.8a11.86,11.86,0,0,0,4.7-9.9,11.21,11.21,0,0,0-2.1-7c.4.2.8.5,1.3.8a13.84,13.84,0,0,0,2.5,1.4c2.9,1.2,5.1.2,6.5-3.2,1.1-2.5.6-4.3-1.5-5.2a4.6,4.6,0,0,0-1.3-.4,2.61,2.61,0,0,1-1.1-.3,1.06,1.06,0,0,1-.6-.7,3.22,3.22,0,0,1,0-1.4,13.61,13.61,0,0,1,.7-2.2l9.5-22.3q1-2.7-1.2-3.6a18.7,18.7,0,0,0-2.5-.8c-2-.6-3.1-.9-3.3-1-.6-.3-1.6-.8-2.8-1.5a18.23,18.23,0,0,0-2.9-1.6q-4.05-1.8-6.3,3.3c-1.1,2.6-.7,4.3,1.1,5a10.38,10.38,0,0,0,1.2.3,10.38,10.38,0,0,1,1.2.3c1.1.5,1.2,2,.1,4.5L58,140.3c-2.6,6.1-6.1,8.2-10.5,6.4-2.9-1.2-3.6-3.8-2.1-7.7l8.1-19.6a4,4,0,0,0,.4-2.7c.5-.2.9-.3,1.4-.5a18.35,18.35,0,0,0,10.1-10c2.7,2.7,6.1,3.1,10.1,1.4a10.4,10.4,0,0,0,4.9-3.9,5.1,5.1,0,0,0,.5-4.9,4.68,4.68,0,0,0-2.4-2.4,4.45,4.45,0,0,0-3.4,0,2.19,2.19,0,0,0-.5.3,3.7,3.7,0,0,1-1.1.5c-.8.3-1.5-.3-2.2-1.9L64.8,80.1a19.11,19.11,0,0,0-1.7-3.2c.9,0,1.8.1,2.7.1,1.7.1,3.2.2,4.5.2s2.4.1,3.3.1c3.5,0,5.2-1.5,5.2-4.4a6.61,6.61,0,0,0-.1-1.1c-.1-.6-.1-1.4-.2-2.5a8.6,8.6,0,0,1-.1-1.6V66.1a11.56,11.56,0,0,1,.1-1.7c.1-.7.1-1.5.2-2.4a23.2,23.2,0,0,0,.2-2.4,12.13,12.13,0,0,0,.1-1.8c0-4.2-2.1-6.3-6.4-6.3a7.21,7.21,0,0,0-4.8,1.7,5.41,5.41,0,0,0-1.9,4.3,14.46,14.46,0,0,0,.4,3.1,12.22,12.22,0,0,1,.3,2.6c0,2.7-2.2,4-6.5,4H54.6c-.5,0-.9-.1-1.2-.1a3.08,3.08,0,0,1-2.7-2.4,16.43,16.43,0,0,1-.2-3.9V38.6c0-2.9.9-4.4,2.6-4.4a14.87,14.87,0,0,1,2.5.3,14.87,14.87,0,0,0,2.5.3,3.69,3.69,0,0,0,3-1.5,6,6,0,0,0,1.2-3.8,5.36,5.36,0,0,0-1.6-4.2,5.73,5.73,0,0,0-4.2-1.6c-1.1,0-3,.2-5.5.5a1.7,1.7,0,0,0-.7.1,9,9,0,0,0,2.2-6,9.3,9.3,0,1,0-18.6,0,8.8,8.8,0,0,0,2,5.7,36.43,36.43,0,0,0-3.8-.2c-3.9,0-5.9,1.9-5.9,5.8a6.15,6.15,0,0,0,1.2,3.8,3.75,3.75,0,0,0,3.1,1.5,9.63,9.63,0,0,0,2-.3,8.08,8.08,0,0,1,1.9-.3c1.4,0,2.2,1.8,2.2,5.3V61.7c0,3.6-.7,5.4-2.2,5.4a8.9,8.9,0,0,1-1.9-.3,8.08,8.08,0,0,0-1.9-.3A4.07,4.07,0,0,0,27.4,68a5.77,5.77,0,0,0-1.2,3.8A5.65,5.65,0,0,0,27.8,76a5.28,5.28,0,0,0,4,1.7,19.27,19.27,0,0,0,2.4-.1q1.2-.15,2.7-.3l2.5-.3a20.67,20.67,0,0,0-6.3,5.1c-2.1,2.7-2.7,5.4-1.5,8a5.92,5.92,0,0,0,3.8,3.6,7.81,7.81,0,0,0,5.6-.3,7.34,7.34,0,0,0,3.7-3.2A4.8,4.8,0,0,0,45,86l-.1-.3a4.67,4.67,0,0,1-.5-1c-.4-1,.2-1.9,1.8-2.6a6.3,6.3,0,0,1,4-.4,3.67,3.67,0,0,1,2.6,2.2,4.14,4.14,0,0,1-.4,4.3c-.9,1.3-3,3-6.2,5a53.22,53.22,0,0,0-5.9,4.4c-3.8,3.4-4.6,7.7-2.4,12.8,0,.1.1.2.1.3a5.39,5.39,0,0,0-2.6,3.2c-1.1,2.7-.6,4.5,1.6,5.4a3.09,3.09,0,0,0,.8.2l.7.3a1.34,1.34,0,0,1,.9.9c.1.4-.2,1.4-.9,3.2l-4.8,11.4c-1.9,4.4-2.8,7.6-2.6,9.6a9.52,9.52,0,0,0,2.3,5.6,14.22,14.22,0,0,0,5.5,4.1,15.73,15.73,0,0,0,3.5,1.1,18,18,0,0,0-9.8,3.7,11.56,11.56,0,0,0-4.8,9.4,10.19,10.19,0,0,0,2.9,7,13.06,13.06,0,0,0-5,3.4,7.93,7.93,0,0,0-1.4,4.9c0,4,2.1,6.4,6.4,7.3-5.4,1.6-8.1,4.6-8.1,8.9q0,5.55,5.1,9c-.2,0-.3.1-.5.1-1.3.4-2.3.7-2.9.9a4.51,4.51,0,0,0-2.7,2.7,5.35,5.35,0,0,0,.2,4.1c1.1,2.7,2.8,3.6,5.2,2.6a3.58,3.58,0,0,0,1.1-.6,4.88,4.88,0,0,1,1.2-.8c.8-.3,1.8.9,2.9,3.6l10,24.6c1.1,2.8,1.3,4.3.4,4.7a3.92,3.92,0,0,1-1.3.2,3.92,3.92,0,0,0-1.3.2c-2.4,1-3.1,2.9-1.9,5.7a5.71,5.71,0,0,0,2.7,3,4.58,4.58,0,0,0,3.8.1c.5-.2,1.7-.9,3.6-1.9,1.1-.6,2.2-1.1,3.2-1.6a36.24,36.24,0,0,1,4.3-1.4c1.6-.4,2.7-.8,3.3-1,2.7-1.1,3.4-3.3,2.1-6.5-.9-2.2-2.2-3.1-3.8-2.8a3.07,3.07,0,0,1-2.1.1,4.24,4.24,0,0,1-1.1-1.8l-3.5-8.7c-2.4-5.9-1.4-9.7,2.8-11.4,3.1-1.3,5.5.2,7.1,4.3L65.1,239a5.15,5.15,0,0,1,.5,2.1c0,.5-.5.9-1.3,1.3q-2.7,1.35-1.2,5.1a5.58,5.58,0,0,0,2.5,2.9,4.27,4.27,0,0,0,3.5,0,34.92,34.92,0,0,0,3.4-1.7,34.92,34.92,0,0,1,3.4-1.7c.8-.3,2.1-.7,3.8-1.2s3-.9,3.8-1.2C86.2,243.5,87,241.2,85.6,237.8Z"/><path id="path9" class="cls-1" d="M27.4,209.4a16.68,16.68,0,0,0,2.4-.8,36.57,36.57,0,0,0,3.9-1.8c1-.6,1.9-1,2.5-1.3q1.95-.75,3,1.8l2.4,6m10.7-.8a6.12,6.12,0,0,1,1.2-.5,16,16,0,0,1,4-1.1"/><path id="path11" class="cls-1" d="M50.3,24.3c-.6.1-1.2.1-1.8.2a22.6,22.6,0,0,1-2.6.1c-1.1,0-2.2,0-3.3-.1s-2.4-.1-3.6-.2-2.2-.2-3.1-.2"/><path id="path13" class="cls-1" d="M42.1,155.8a16.94,16.94,0,0,0,12-1.8l-1.2,2.9c-.7,1.6-.3,2.7,1.1,3.3a13.53,13.53,0,0,0,2.5.7c1.1.3,2,.5,2.5.7.3.1.7.4,1.2.6"/><path id="path15" class="cls-1" d="M63.2,77.2a10,10,0,0,0-6.7-4.9c-3.3-.5-7.6.4-12.9,2.6-1.6.7-3,1.4-4.3,2.1"/><path id="path17" class="cls-1" d="M37.8,110.8a11,11,0,0,0,6.8,6.4,14.28,14.28,0,0,0,9.1-.3"/></g></svg>